<?xml version="1.0" encoding="UTF-8"?>
<svg version="1.1" xmlns="http://www.w3.org/2000/svg" width="1024" height="1024">
<path d="M0 0 C17.49 0 34.98 0 53 0 C53 0.33 53 0.66 53 1 C59.93 1.33 66.86 1.66 74 2 C74 2.66 74 3.32 74 4 C75.03125 3.979375 76.0625 3.95875 77.125 3.9375 C83.43325398 3.92611326 89.71527216 4.50569556 96 5 C96 5.66 96 6.32 96 7 C98.97 6.505 98.97 6.505 102 6 C102 6.33 102 6.66 102 7 C104.39469729 7.50604924 106.79051717 8.00499517 109.1875 8.5 C109.86103516 8.64308594 110.53457031 8.78617188 111.22851562 8.93359375 C114.88626927 9.68298718 118.27135091 10.10807679 122 10 C123.34332728 10.29044914 124.68225804 10.60955794 126 11 C126 11.66 126 12.32 126 13 C126.598125 12.814375 127.19625 12.62875 127.8125 12.4375 C130.69690544 11.86061891 132.42123116 12.71061558 135 14 C135.845625 14.144375 136.69125 14.28875 137.5625 14.4375 C138.366875 14.623125 139.17125 14.80875 140 15 C140.33 15.66 140.66 16.32 141 17 C143.04413797 17.62199575 143.04413797 17.62199575 145.5 18 C146.39589844 18.165 147.29179688 18.33 148.21484375 18.5 C149.13394531 18.665 150.05304687 18.83 151 19 C152.68981508 19.32139128 154.37758803 19.65382226 156.0625 20 C156.79597656 20.144375 157.52945313 20.28875 158.28515625 20.4375 C158.85105469 20.623125 159.41695312 20.80875 160 21 C160.33 21.66 160.66 22.32 161 23 C161.99 22.67 162.98 22.34 164 22 C164 22.66 164 23.32 164 24 C165.98 24 167.96 24 170 24 C170 24.66 170 25.32 170 26 C170.721875 26.12375 171.44375 26.2475 172.1875 26.375 C175 27 175 27 177.5625 28.0625 C180.18696827 29.23931939 180.18696827 29.23931939 184 29 C184 29.66 184 30.32 184 31 C185.65 31 187.3 31 189 31 C189 31.66 189 32.32 189 33 C189.78375 32.979375 190.5675 32.95875 191.375 32.9375 C194 33 194 33 196 34 C196 34.66 196 35.32 196 36 C197.7015625 36.185625 197.7015625 36.185625 199.4375 36.375 C200.613125 36.58125 201.78875 36.7875 203 37 C203.33 37.66 203.66 38.32 204 39 C206.19479036 40.02669465 208.38254638 40.96323911 210.625 41.875 C220.94079846 46.21267917 230.74973786 51.50373381 240.6237793 56.75170898 C242.53487975 57.75566014 244.46574837 58.72193577 246.40234375 59.67578125 C248.89494621 60.94644626 251.13863569 62.34727643 253.4375 63.9375 C256.09635553 65.74712241 258.73953738 67.45961629 261.5625 69 C264.92561443 70.95672112 267.88630522 73.12779591 270.9609375 75.49609375 C272.9396611 76.95549717 274.95551832 78.23499748 277.0625 79.5 C280.32571618 81.49453832 283.10270962 83.73135317 285.95703125 86.265625 C291.19059921 90.70865402 296.83280786 94.68711626 302.375 98.734375 C303.055625 99.23453125 303.73625 99.7346875 304.4375 100.25 C305.01371094 100.66765625 305.58992187 101.0853125 306.18359375 101.515625 C308.62772713 103.51298131 310.77674009 105.76024707 313 108 C314.37936629 109.26757973 315.7591652 110.53473777 317.14794922 111.79199219 C323.38729188 117.44757142 329.413382 123.3030854 335.375 129.25 C336.12354248 129.99403076 336.87208496 130.73806152 337.64331055 131.50463867 C342.30057466 136.17434843 346.71290574 140.98995343 351 146 C351.97336869 147.11770127 352.94730119 148.23491187 353.921875 149.3515625 C363.27497497 160.14999343 372.15762303 171.24855128 380.44140625 182.890625 C381.9710485 185.07004514 381.9710485 185.07004514 384 187 C385.02727749 188.71310196 386.02215296 190.44570996 387 192.1875 C389.34531355 196.27366484 391.78086622 200.20827803 394.45483398 204.08544922 C401.46916893 214.26866869 407.27208054 225.05384883 413 236 C413.48146484 236.91765137 413.96292969 237.83530273 414.45898438 238.78076172 C420.32182908 250.02854531 425.6014633 261.37632167 430.18432617 273.20898438 C430.5269751 274.08490234 430.86962402 274.96082031 431.22265625 275.86328125 C431.66750366 277.02790894 431.66750366 277.02790894 432.12133789 278.21606445 C432.86822795 280.18610437 432.86822795 280.18610437 435 281 C435.20665301 282.58433971 435.40739649 284.1696247 435.58203125 285.7578125 C436.28328581 289.51968274 437.76600961 292.99452982 439.16015625 296.546875 C440 299 440 299 440 302 C440.66 302.33 441.32 302.66 442 303 C442.75396457 305.60647907 443.4079653 308.16915757 444 310.8125 C445.40742994 317.11409258 445.40742994 317.11409258 448 323 C448.98535873 325.9560762 449.3265022 328.71667896 449.6875 331.79785156 C450.19716947 335.38942862 451.09165405 338.86667831 452 342.375 C452.17789063 343.08527344 452.35578125 343.79554688 452.5390625 344.52734375 C453.49817774 348.3598167 453.49817774 348.3598167 455 352 C455.30869938 354.29809536 455.50883648 356.59720129 455.71875 358.90625 C455.892155 361.05443933 455.892155 361.05443933 457 363 C457.30869938 365.29809536 457.50883648 367.59720129 457.71875 369.90625 C457.892155 372.05443933 457.892155 372.05443933 459 374 C459 375.98830214 458.99791395 377.97670204 458.97265625 379.96484375 C459.01682405 383.25218987 459.53164771 386.06329543 461 389 C460.91219597 391.04498425 460.75758462 393.08744948 460.5625 395.125 C460.40974609 396.76855469 460.40974609 396.76855469 460.25390625 398.4453125 C460.17011719 399.28835938 460.08632813 400.13140625 460 401 C460.66 401 461.32 401 462 401 C462 406.61 462 412.22 462 418 C462.33 418 462.66 418 463 418 C463 426.25 463 434.5 463 443 C462.67 443 462.34 443 462 443 C462.00523682 443.72179443 462.01047363 444.44358887 462.01586914 445.18725586 C462.03657358 448.43732849 462.04963918 451.68738728 462.0625 454.9375 C462.07087891 456.07380859 462.07925781 457.21011719 462.08789062 458.38085938 C462.09111328 459.46044922 462.09433594 460.54003906 462.09765625 461.65234375 C462.10289307 462.65257568 462.10812988 463.65280762 462.11352539 464.68334961 C462 467 462 467 461 468 C460.92741054 470.18639453 460.91626217 472.37500389 460.9375 474.5625 C460.95103516 476.35880859 460.95103516 476.35880859 460.96484375 478.19140625 C460.98224609 479.58166016 460.98224609 479.58166016 461 481 C460.67 481 460.34 481 460 481 C460 484.3 460 487.6 460 491 C459.34 491 458.68 491 458 491 C458.33 493.64 458.66 496.28 459 499 C458.34 499 457.68 499 457 499 C457.185625 500.134375 457.37125 501.26875 457.5625 502.4375 C457.706875 503.613125 457.85125 504.78875 458 506 C457.67 506.33 457.34 506.66 457 507 C456.95919217 508.99958364 456.95745644 511.00045254 457 513 C456.34 513 455.68 513 455 513 C455.33 514.98 455.66 516.96 456 519 C455.34 519 454.68 519 454 519 C454.33 520.65 454.66 522.3 455 524 C454.34 524 453.68 524 453 524 C453.33 525.65 453.66 527.3 454 529 C453.34 529 452.68 529 452 529 C452.185625 529.9075 452.37125 530.815 452.5625 531.75 C452.95734621 534.68314324 452.94691572 536.2644657 452 539 C451.34 539 450.68 539 450 539 C450.33 540.65 450.66 542.3 451 544 C450.34 544 449.68 544 449 544 C449 546.31 449 548.62 449 551 C448.34 551 447.68 551 447 551 C447.33 552.32 447.66 553.64 448 555 C447.34 555 446.68 555 446 555 C446.20625 555.78375 446.4125 556.5675 446.625 557.375 C446.74875 558.24125 446.8725 559.1075 447 560 C446.34 560.66 445.68 561.32 445 562 C445 563.32 445 564.64 445 566 C444.34 566 443.68 566 443 566 C442.87882813 566.85464844 442.75765625 567.70929687 442.6328125 568.58984375 C442.46523438 569.69457031 442.29765625 570.79929687 442.125 571.9375 C441.96257813 573.03964844 441.80015625 574.14179687 441.6328125 575.27734375 C441.42398438 576.17582031 441.21515625 577.07429687 441 578 C440.34 578.33 439.68 578.66 439 579 C439 581.31 439 583.62 439 586 C438.34 586.33 437.68 586.66 437 587 C436.34227572 590.02934491 436.34227572 590.02934491 436 593 C435.34 593 434.68 593 434 593 C434.33 593.99 434.66 594.98 435 596 C434.34 596 433.68 596 433 596 C433.020625 596.78375 433.04125 597.5675 433.0625 598.375 C433 601 433 601 432 603 C431.34 603 430.68 603 430 603 C430.33 603.99 430.66 604.98 431 606 C430.67 606.66 430.34 607.32 430 608 C429.34 608 428.68 608 428 608 C425.59009896 614.88824069 425.59009896 614.88824069 424 622 C423.34 622 422.68 622 422 622 C421.87625 622.969375 421.7525 623.93875 421.625 624.9375 C421.41875 625.948125 421.2125 626.95875 421 628 C420.34 628.33 419.68 628.66 419 629 C419 629.99 419 630.98 419 632 C418.34 632.33 417.68 632.66 417 633 C417 633.99 417 634.98 417 636 C416.34 636.33 415.68 636.66 415 637 C415 637.99 415 638.98 415 640 C414.0214236 641.02097416 413.01726217 642.01756543 412 643 C411.01342913 644.60231408 410.08058677 646.23829199 409.1875 647.89453125 C408.66929687 648.85037109 408.15109375 649.80621094 407.6171875 650.79101562 C407.08351563 651.78810547 406.54984375 652.78519531 406 653.8125 C405.46632813 654.79798828 404.93265625 655.78347656 404.3828125 656.79882812 C402.29630204 660.66302474 400.23394076 664.52515915 398.29296875 668.46484375 C397.12288031 670.75906549 395.8715555 672.70871413 394.3125 674.75 C391.80674833 677.60680466 391.80674833 677.60680466 392 680 C391.34 680.66 390.68 681.32 390 682 C385.48372653 687.64203078 381.13523 693.59099454 377.9765625 700.11328125 C376.71174124 702.55691592 374.97056554 704.08739227 373 706 C371.65576661 707.65788785 370.32381517 709.32576317 369 711 C364.52358449 716.39719718 359.76445674 721.52473283 354.9765625 726.64453125 C352.78573177 728.74285943 352.78573177 728.74285943 353 731 C351.56640625 732.375 351.56640625 732.375 349.5625 734 C345.30650525 737.60472153 341.65465872 741.57769873 337.98046875 745.765625 C335.43838905 748.63361236 332.8266592 751.18667283 329.875 753.625 C326.95768312 756.10011306 324.24898798 758.71389302 321.5625 761.4375 C318.05161411 764.99648022 314.42875212 768.34270273 310.62890625 771.58984375 C309.37392427 772.67629098 308.17374345 773.82625655 307 775 C305.78110582 775.93028246 304.55045973 776.84524358 303.3125 777.75 C298.63413445 781.22681811 294.1246403 784.8753597 290 789 C288 790.33333333 286 791.66666667 284 793 C283.34 793.66 282.68 794.32 282 795 C280.33333333 796 278.66666667 797 277 798 C276.34 798.66 275.68 799.32 275 800 C272.9858368 801.30920608 270.93215064 802.54090917 268.875 803.78125 C266.86830276 804.9933611 266.86830276 804.9933611 265 807 C263.22662541 807.99953841 261.45275364 808.99826865 259.671875 809.984375 C257.89059932 810.97596656 257.89059932 810.97596656 256.3125 812.6875 C254.6524882 814.3475118 253.25468486 814.49087761 251 815 C250.34 815.66 249.68 816.32 249 817 C246.32454913 818.71503261 244.0242787 819.9919071 241 821 C240.3503125 821.7115625 240.3503125 821.7115625 239.6875 822.4375 C237.37786571 824.57605027 234.98919375 825.06221373 232 826 C227.93032268 827.74415074 227.93032268 827.74415074 224.625 830.5625 C222.69679061 832.26822369 221.36606791 832.49715125 218.875 833.0625 C217.59625 833.371875 216.3175 833.68125 215 834 C214.67 834.66 214.34 835.32 214 836 C210.28530176 838.1462701 208.35855288 839 204 839 C203.67 839.66 203.34 840.32 203 841 C202.34 841 201.68 841 201 841 C200.34 841.66 199.68 842.32 199 843 C197.68 843 196.36 843 195 843 C194.67 843.66 194.34 844.32 194 845 C192 845.33333333 190 845.66666667 188 846 C187.67 846.66 187.34 847.32 187 848 C186.34 847.67 185.68 847.34 185 847 C184.67 847.66 184.34 848.32 184 849 C182.68 849 181.36 849 180 849 C179.67 849.66 179.34 850.32 179 851 C177.68 851 176.36 851 175 851 C174.67 851.66 174.34 852.32 174 853 C173.34 852.67 172.68 852.34 172 852 C171.67 852.66 171.34 853.32 171 854 C170.34 854.33 169.68 854.66 169 855 C168.01 854.67 167.02 854.34 166 854 C165.67 854.66 165.34 855.32 165 856 C164.34 856.33 163.68 856.66 163 857 C162.34 856.67 161.68 856.34 161 856 C160.67 856.66 160.34 857.32 160 858 C158.02 858 156.04 858 154 858 C153.67 858.66 153.34 859.32 153 860 C151.35 860 149.7 860 148 860 C147.67 860.66 147.34 861.32 147 862 C144 863 144 863 141 862 C140.67 862.66 140.34 863.32 140 864 C138.02 864 136.04 864 134 864 C133.67 864.66 133.34 865.32 133 866 C132.01 865.67 131.02 865.34 130 865 C129.67 865.66 129.34 866.32 129 867 C126.00463263 868.13617383 124.02121511 867.97110486 121 867 C120.67 867.66 120.34 868.32 120 869 C117.36 869 114.72 869 112 869 C111.67 869.66 111.34 870.32 111 871 C109.68 870.67 108.36 870.34 107 870 C106.67 870.66 106.34 871.32 106 872 C104.68 871.67 103.36 871.34 102 871 C101.67 871.66 101.34 872.32 101 873 C100.21625 872.979375 99.4325 872.95875 98.625 872.9375 C96.01885039 872.81315937 96.01885039 872.81315937 94 874 C91.95944995 874.07065617 89.91665743 874.08421976 87.875 874.0625 C86.77929688 874.05347656 85.68359375 874.04445313 84.5546875 874.03515625 C83.71164062 874.02355469 82.86859375 874.01195312 82 874 C81.67 874.66 81.34 875.32 81 876 C80.2575 875.979375 79.515 875.95875 78.75 875.9375 C76.11696712 875.88934064 76.11696712 875.88934064 74.109375 876.50390625 C71.11944891 877.20709257 68.27301929 877.02117861 65.21875 876.9375 C63.04013796 876.90918089 63.04013796 876.90918089 61.17285156 877.51147461 C58.67782944 878.07243408 56.56758047 878.01895259 54.015625 877.87890625 C53.08105469 877.83056641 52.14648438 877.78222656 51.18359375 877.73242188 C50.21550781 877.67634766 49.24742187 877.62027344 48.25 877.5625 C47.26644531 877.51029297 46.28289062 877.45808594 45.26953125 877.40429688 C42.84601151 877.27488563 40.42293136 877.13993095 38 877 C38 877.66 38 878.32 38 879 C31.07 879 24.14 879 17 879 C17 878.67 17 878.34 17 878 C16.18732666 878.00523682 15.37465332 878.01047363 14.53735352 878.01586914 C10.87907678 878.03656994 7.22081233 878.04963803 3.5625 878.0625 C2.28310547 878.07087891 1.00371094 878.07925781 -0.31445312 878.08789062 C-1.52939453 878.09111328 -2.74433594 878.09433594 -3.99609375 878.09765625 C-5.12200928 878.10289307 -6.2479248 878.10812988 -7.40795898 878.11352539 C-10 878 -10 878 -11 877 C-14.27058285 876.92701628 -17.53009619 877.0038987 -20.80078125 877.0625 C-23.46693327 877.010414 -25.47400218 876.73988037 -28 876 C-28.66 876 -29.32 876 -30 876 C-30 875.34 -30 874.68 -30 874 C-34.29 874 -38.58 874 -43 874 C-43 873.34 -43 872.68 -43 872 C-44.98 872.33 -46.96 872.66 -49 873 C-49 872.34 -49 871.68 -49 871 C-50.65 871.33 -52.3 871.66 -54 872 C-54 871.34 -54 870.68 -54 870 C-55.98 870.33 -57.96 870.66 -60 871 C-60 870.34 -60 869.68 -60 869 C-60.67546875 869.01160156 -61.3509375 869.02320313 -62.046875 869.03515625 C-63.38492188 869.04869141 -63.38492188 869.04869141 -64.75 869.0625 C-65.63171875 869.07410156 -66.5134375 869.08570313 -67.421875 869.09765625 C-69.7818838 869.00826198 -71.74498524 868.66912821 -74 868 C-74 867.34 -74 866.68 -74 866 C-76.64 866 -79.28 866 -82 866 C-82 865.34 -82 864.68 -82 864 C-83.32 864.33 -84.64 864.66 -86 865 C-86 864.34 -86 863.68 -86 863 C-86.99 863.33 -87.98 863.66 -89 864 C-89 863.34 -89 862.68 -89 862 C-91.31 862 -93.62 862 -96 862 C-96 861.34 -96 860.68 -96 860 C-99.3 859.67 -102.6 859.34 -106 859 C-106 858.34 -106 857.68 -106 857 C-107.98 857 -109.96 857 -112 857 C-112 856.34 -112 855.68 -112 855 C-112.99 855.33 -113.98 855.66 -115 856 C-115 855.34 -115 854.68 -115 854 C-115.61875 854.185625 -116.2375 854.37125 -116.875 854.5625 C-119 855 -119 855 -121 854 C-121 853.34 -121 852.68 -121 852 C-123.64 851.67 -126.28 851.34 -129 851 C-129 850.34 -129 849.68 -129 849 C-129.85464844 848.80664062 -130.70929688 848.61328125 -131.58984375 848.4140625 C-133.24693359 848.02347656 -133.24693359 848.02347656 -134.9375 847.625 C-136.59072266 847.24214844 -136.59072266 847.24214844 -138.27734375 846.8515625 C-139.17582031 846.57054687 -140.07429688 846.28953125 -141 846 C-141.33 845.34 -141.66 844.68 -142 844 C-144.32156597 843.59270772 -146.6568787 843.25561323 -149 843 C-149 842.34 -149 841.68 -149 841 C-149.62648438 840.86722656 -150.25296875 840.73445312 -150.8984375 840.59765625 C-151.71570313 840.42105469 -152.53296875 840.24445312 -153.375 840.0625 C-154.18710937 839.88847656 -154.99921875 839.71445312 -155.8359375 839.53515625 C-158 839 -158 839 -160 838 C-160 837.34 -160 836.68 -160 836 C-161.134375 835.87625 -162.26875 835.7525 -163.4375 835.625 C-164.613125 835.41875 -165.78875 835.2125 -167 835 C-167.33 834.34 -167.66 833.68 -168 833 C-168.99 833 -169.98 833 -171 833 C-172.01518023 832.01541425 -173.0135533 831.01337205 -174 830 C-175.99189894 828.96747019 -175.99189894 828.96747019 -178.1875 828.125 C-182.16346634 826.44510557 -185.68282307 824.43713611 -189.2734375 822.05078125 C-191.13064558 820.83252163 -191.13064558 820.83252163 -194 820 C-194.804375 819.34 -195.60875 818.68 -196.4375 818 C-198.75231652 815.91001479 -198.75231652 815.91001479 -201.0625 815.5 C-203.8026467 814.79286537 -205.02547304 812.97452696 -207 811 C-207.66 810.835 -208.32 810.67 -209 810.5 C-211.79231878 809.8019203 -212.9918871 808.0081129 -215 806 C-215.639375 805.855625 -216.27875 805.71125 -216.9375 805.5625 C-220.11397273 804.69618926 -221.74544826 802.31388205 -224 800 C-224.66 800 -225.32 800 -226 800 C-227.66666667 798.33333333 -229.33333333 796.66666667 -231 795 C-231.66 795 -232.32 795 -233 795 C-233.66 794.34 -234.32 793.68 -235 793 C-243.70886423 784.68965238 -243.70886423 784.68965238 -254 779 C-255.67067133 777.00334402 -257.33752986 775.00348966 -259 773 C-259.66 773 -260.32 773 -261 773 C-262.66666667 771 -264.33333333 769 -266 767 C-266.66 767 -267.32 767 -268 767 C-269.66666667 765 -271.33333333 763 -273 761 C-273.66 761 -274.32 761 -275 761 C-276.41015625 759.56640625 -276.41015625 759.56640625 -278.0625 757.5625 C-280.75174994 754.39242783 -283.53513377 751.41418475 -286.5 748.5 C-289.84802811 745.19142677 -292.99712329 741.79555566 -296.05859375 738.22265625 C-297.99974228 736.00029506 -299.99419394 733.83331486 -302.00219727 731.67138672 C-307.28129682 725.98371593 -312.23185369 720.12743969 -317 714 C-318.93043023 711.5519125 -320.79541154 709.20458846 -323 707 C-323.97888787 705.57641735 -324.93473013 704.13687973 -325.875 702.6875 C-328.63266577 698.50391925 -331.44751816 694.55248184 -335 691 C-336.0216775 689.34653308 -337.01841332 687.67757723 -338 686 C-339.18018889 684.09960676 -340.36784016 682.20382973 -341.5625 680.3125 C-342.16191406 679.35988281 -342.76132812 678.40726563 -343.37890625 677.42578125 C-344.91808312 674.95190112 -344.91808312 674.95190112 -347 673 C-348.58504942 670.20893472 -350.06763365 667.37149606 -351.5625 664.53125 C-352.88973251 661.93314366 -352.88973251 661.93314366 -355 660 C-356.31542567 657.51433913 -357.57971371 655.02605976 -358.8125 652.5 C-359.5272147 651.04941557 -360.24205841 649.59889471 -360.95703125 648.1484375 C-361.47837646 647.08641113 -361.47837646 647.08641113 -362.01025391 646.00292969 C-363.69719128 642.58910773 -365.44341155 639.20522101 -367.1875 635.8203125 C-368 634 -368 634 -368 632 C-368.66 631.67 -369.32 631.34 -370 631 C-372 625.77777778 -372 625.77777778 -372 623 C-372.66 622.67 -373.32 622.34 -374 622 C-374.63385922 619.95756472 -375.01826504 617.90867481 -375.4375 615.8125 C-375.623125 615.214375 -375.80875 614.61625 -376 614 C-376.66 613.67 -377.32 613.34 -378 613 C-378.67375452 610.911361 -379 609.19636905 -379 607 C-379.66 606.67 -380.32 606.34 -381 606 C-381 604.68 -381 603.36 -381 602 C-381.66 601.67 -382.32 601.34 -383 601 C-383 599.68 -383 598.36 -383 597 C-383.66 596.67 -384.32 596.34 -385 596 C-384.67 595.34 -384.34 594.68 -384 594 C-384.66 593.67 -385.32 593.34 -386 593 C-386.33333333 590.66666667 -386.66666667 588.33333333 -387 586 C-387.66 585.67 -388.32 585.34 -389 585 C-388.67 584.34 -388.34 583.68 -388 583 C-388.66 582.67 -389.32 582.34 -390 582 C-390.3911938 579.93734178 -390.50674519 577.90556733 -390.65625 575.8125 C-390.7696875 575.214375 -390.883125 574.61625 -391 574 C-391.66 573.67 -392.32 573.34 -393 573 C-393 571.35 -393 569.7 -393 568 C-393.66 567.67 -394.32 567.34 -395 567 C-395.39310414 564.67711188 -395.50749695 562.38154824 -395.65625 560.03125 C-395.82640625 559.02578125 -395.82640625 559.02578125 -396 558 C-396.66 557.67 -397.32 557.34 -398 557 C-398.62599243 553.61964088 -399 550.43830115 -399 547 C-399.66 546.67 -400.32 546.34 -401 546 C-400.67 545.01 -400.34 544.02 -400 543 C-400.66 542.67 -401.32 542.34 -402 542 C-401.67 541.01 -401.34 540.02 -401 539 C-401.66 538.67 -402.32 538.34 -403 538 C-403.39700556 534.89613835 -403.50884532 531.81247932 -403.65625 528.6875 C-403.7696875 527.800625 -403.883125 526.91375 -404 526 C-404.66 525.67 -405.32 525.34 -406 525 C-407.11421833 521.35346727 -406.94296589 518.66708957 -406 515 C-406.66 514.67 -407.32 514.34 -408 514 C-408.94106784 510.61215578 -409 507.49162641 -409 504 C-409.33 503.34 -409.66 502.68 -410 502 C-409.72057545 500.32345271 -409.39171753 498.65391846 -409 497 C-409.66 497 -410.32 497 -411 497 C-410.67 494.36 -410.34 491.72 -410 489 C-410.66 489 -411.32 489 -412 489 C-411.95117188 486.02148438 -411.95117188 486.02148438 -411.90234375 483.04296875 C-411.91736783 480.79694539 -411.91736783 480.79694539 -413 478 C-412.91538508 476.26675881 -412.76395645 474.53607188 -412.5625 472.8125 C-412.40974609 471.46091797 -412.40974609 471.46091797 -412.25390625 470.08203125 C-412.17011719 469.39496094 -412.08632813 468.70789063 -412 468 C-412.66 468 -413.32 468 -414 468 C-414 447.21 -414 426.42 -414 405 C-413.67 405 -413.34 405 -413 405 C-413 400.38 -413 395.76 -413 391 C-412.67 391 -412.34 391 -412 391 C-411.02889046 386.38722969 -410.94575209 382.05169738 -411.0625 377.3671875 C-411.00176708 375.06692827 -410.62579842 373.20409886 -410 371 C-409.23212019 366.68067606 -408.60821626 362.34440184 -408 358 C-407.67 358 -407.34 358 -407 358 C-407.04125 356.906875 -407.0825 355.81375 -407.125 354.6875 C-407 351 -407 351 -405 348 C-404.51062052 346.36171075 -404.08785772 344.70291376 -403.7109375 343.03515625 C-403.49179687 342.07029297 -403.27265625 341.10542969 -403.046875 340.11132812 C-402.71429688 338.6021582 -402.71429688 338.6021582 -402.375 337.0625 C-402.03082031 335.55913086 -402.03082031 335.55913086 -401.6796875 334.02539062 C-400.74960531 329.87600609 -400 326.27482449 -400 322 C-399.34 322 -398.68 322 -398 322 C-398.20625 321.236875 -398.4125 320.47375 -398.625 319.6875 C-399 317 -399 317 -397 314 C-396.64716852 312.67169325 -396.31801813 311.33706894 -396 310 C-394.71471549 306.42648766 -393.38871833 302.86954704 -392.05859375 299.3125 C-390.79706074 295.94456218 -390.79706074 295.94456218 -391 292 C-390.34 292 -389.68 292 -389 292 C-388.79697266 291.23042969 -388.79697266 291.23042969 -388.58984375 290.4453125 C-386.63496472 283.4920302 -384.04915815 276.84477803 -381.33764648 270.15869141 C-381.03673096 269.4063623 -380.73581543 268.6540332 -380.42578125 267.87890625 C-380.15161377 267.2041626 -379.87744629 266.52941895 -379.5949707 265.83422852 C-378.84572753 263.84578033 -378.84572753 263.84578033 -379 261 C-378.34 260.67 -377.68 260.34 -377 260 C-376.2986716 257.67684969 -375.63514826 255.34210921 -375 253 C-374.01187792 250.76025662 -372.86188321 248.77332232 -371.58740234 246.68164062 C-370.13629735 244.23025071 -368.81870918 241.76274269 -367.5390625 239.21875 C-361.82124549 227.98393205 -355.81462103 217.09714162 -349.01416016 206.4765625 C-348.48870605 205.65285156 -347.96325195 204.82914063 -347.421875 203.98046875 C-346.95362305 203.25754639 -346.48537109 202.53462402 -346.00292969 201.78979492 C-344.8370525 200.0511496 -344.8370525 200.0511496 -345 198 C-343.33629103 196.33038087 -341.66899279 194.6643373 -340 193 C-338.34614347 190.79036134 -336.75078364 188.58296855 -335.1875 186.3125 C-328.78171896 177.19594231 -321.77721285 168.68744981 -314.50366211 160.25537109 C-311.34368781 156.58782061 -308.24117845 152.88217093 -305.1875 149.125 C-302.50444581 145.83216077 -299.81562152 142.54713455 -297.0625 139.3125 C-296.24458984 138.34763672 -296.24458984 138.34763672 -295.41015625 137.36328125 C-294 136 -294 136 -292 136 C-292 135.34 -292 134.68 -292 134 C-291.34 134 -290.68 134 -290 134 C-290 133.34 -290 132.68 -290 132 C-289.34 132 -288.68 132 -288 132 C-288 131.34 -288 130.68 -288 130 C-287.34 130 -286.68 130 -286 130 C-286 129.34 -286 128.68 -286 128 C-285.34 128 -284.68 128 -284 128 C-284 127.34 -284 126.68 -284 126 C-283.34 126 -282.68 126 -282 126 C-282 125.34 -282 124.68 -282 124 C-281.34 124 -280.68 124 -280 124 C-280 123.34 -280 122.68 -280 122 C-278.46804728 120.62787699 -276.87078919 119.3284554 -275.25 118.0625 C-271.06656726 114.72323377 -267.09501737 111.29059839 -263.1875 107.625 C-245.00723456 90.69956649 -223.93796746 76.48337914 -202.70703125 63.69140625 C-200.03582544 62.07690269 -200.03582544 62.07690269 -197.80078125 60.34375 C-195.66641416 58.75107694 -193.46768356 57.97408562 -191 57 C-190.01 56.01 -190.01 56.01 -189 55 C-185.6901195 53.39732102 -182.33158138 51.92547849 -178.96875 50.4375 C-175.96444539 49.18328591 -175.96444539 49.18328591 -174 47 C-173.34 47 -172.68 47 -172 47 C-171.01 46.01 -171.01 46.01 -170 45 C-166.92631104 43.88229492 -163.81827609 42.94513995 -160.6875 42 C-157.86445017 41.29749888 -157.86445017 41.29749888 -157 39 C-154.66989091 38.32215008 -152.33640176 37.65583207 -150 37 C-149.34 36.34 -148.68 35.68 -148 35 C-146.15234375 34.25390625 -146.15234375 34.25390625 -143.9375 33.5625 C-142.74253906 33.17964844 -142.74253906 33.17964844 -141.5234375 32.7890625 C-139.84114583 32.26302083 -138.15885417 31.73697917 -136.4765625 31.2109375 C-135.28160156 30.82808594 -135.28160156 30.82808594 -134.0625 30.4375 C-132.96615234 30.09525391 -132.96615234 30.09525391 -131.84765625 29.74609375 C-129.79771903 29.05832289 -129.79771903 29.05832289 -128 27 C-126.33678518 26.64984951 -124.66965451 26.31802943 -123 26 C-120.84971696 25.05021103 -120.84971696 25.05021103 -119 24 C-116.10655794 22.55327897 -113.19460336 22.61943417 -109.99609375 22.37890625 C-109.33738281 22.25386719 -108.67867188 22.12882812 -108 22 C-107.67 21.34 -107.34 20.68 -107 20 C-106.34 20.33 -105.68 20.66 -105 21 C-104.67 20.34 -104.34 19.68 -104 19 C-102.34385343 18.61781233 -100.67542976 18.28604898 -99 18 C-98.34 17.67 -97.68 17.34 -97 17 C-94.51023345 16.48382889 -92.01126934 16.04230008 -89.5078125 15.59765625 C-87.00391517 15.10406863 -87.00391517 15.10406863 -84.9140625 13.94140625 C-81.98939087 12.50294531 -79.19993976 12.87692539 -76 13 C-75.67 12.34 -75.34 11.68 -75 11 C-73.14453125 10.65625 -73.14453125 10.65625 -70.8125 10.5 C-67.78457923 10.24005132 -65.54878138 9.84959379 -62.625 8.875 C-60 8 -60 8 -57 9 C-57 8.34 -57 7.68 -57 7 C-53.37 7 -49.74 7 -46 7 C-46 6.34 -46 5.68 -46 5 C-45.41992188 5.02320312 -44.83984375 5.04640625 -44.2421875 5.0703125 C-39.30432713 5.18438848 -35.69573011 4.63329743 -31 3 C-28.6670134 2.95977609 -26.33293334 2.95679753 -24 3 C-22.65737935 2.70630173 -21.32303717 2.3721042 -20 2 C-13.35273107 0.72711872 -6.74931505 0.90865589 0 1 C0 0.67 0 0.34 0 0 Z " fill="#AF0C1C" transform="translate(488,72)"/>
<path d="M0 0 C0.66 0 1.32 0 2 0 C2 0.66 2 1.32 2 2 C2.61875 2.144375 3.2375 2.28875 3.875 2.4375 C6 3 6 3 8 4 C8 4.66 8 5.32 8 6 C8.804375 6.37125 8.804375 6.37125 9.625 6.75 C12.5823982 8.30652537 15.29724051 10.03435673 18 12 C18 12.66 18 13.32 18 14 C18.66 14 19.32 14 20 14 C20 14.66 20 15.32 20 16 C20.763125 16.28875 21.52625 16.5775 22.3125 16.875 C25 18 25 18 28 20 C28 20.66 28 21.32 28 22 C28.66 22 29.32 22 30 22 C28.44891182 33.78827016 23.43264182 43.5992653 18 54 C17.34 54 16.68 54 16 54 C15.855625 54.61875 15.71125 55.2375 15.5625 55.875 C15 58 15 58 14 60 C13.34 60 12.68 60 12 60 C11.855625 60.61875 11.71125 61.2375 11.5625 61.875 C11 64 11 64 10 66 C9.34 66 8.68 66 8 66 C7.71125 66.763125 7.4225 67.52625 7.125 68.3125 C6 71 6 71 4 74 C3.34 74 2.68 74 2 74 C1.62875 75.0828125 1.62875 75.0828125 1.25 76.1875 C-0.12269592 79.27606582 -1.72353296 81.51011418 -4 84 C-4.66 84 -5.32 84 -6 84 C-6 84.66 -6 85.32 -6 86 C-6.66 86 -7.32 86 -8 86 C-8 86.66 -8 87.32 -8 88 C-8.66 88 -9.32 88 -10 88 C-10 88.66 -10 89.32 -10 90 C-10.66 90 -11.32 90 -12 90 C-12.66 91.32 -13.32 92.64 -14 94 C-14.66 94 -15.32 94 -16 94 C-16.37125 94.86625 -16.37125 94.86625 -16.75 95.75 C-18.18299988 98.32939979 -19.78424676 100.06121592 -22 102 C-22.66 102 -23.32 102 -24 102 C-24 102.66 -24 103.32 -24 104 C-24.66 104 -25.32 104 -26 104 C-26 104.66 -26 105.32 -26 106 C-26.66 106 -27.32 106 -28 106 C-28 106.66 -28 107.32 -28 108 C-28.66 108 -29.32 108 -30 108 C-30 108.66 -30 109.32 -30 110 C-31.6796875 111.5078125 -31.6796875 111.5078125 -33.875 113.125 C-34.59429688 113.66382813 -35.31359375 114.20265625 -36.0546875 114.7578125 C-38 116 -38 116 -40 116 C-40 116.66 -40 117.32 -40 118 C-46.02227548 122.48467323 -52.91720609 125.60840725 -60 128 C-60.6703125 128.226875 -61.340625 128.45375 -62.03125 128.6875 C-84.30248406 134.85491866 -109.79470279 125.99310916 -130 117 C-131.91590897 116.22728533 -133.83260114 115.45651024 -135.75 114.6875 C-142.68615475 111.80506102 -149.35672521 108.41313248 -156.04052734 104.99560547 C-158.68717504 103.65084727 -161.34472319 102.3276384 -164 101 C-164.33 141.59 -164.66 182.18 -165 224 C-162.03 223.34 -159.06 222.68 -156 222 C-153.94475397 221.82761752 -151.88260931 221.71755671 -149.8203125 221.69140625 C-148.72589844 221.66626953 -147.63148438 221.64113281 -146.50390625 221.61523438 C-144.25917044 221.58020093 -142.01437272 221.54892423 -139.76953125 221.52148438 C-131.84728082 221.33064285 -124.02781005 220.60651953 -116.87939453 216.90063477 C-115 216 -115 216 -112 216 C-112 215.34 -112 214.68 -112 214 C-111.34 214 -110.68 214 -110 214 C-110 213.34 -110 212.68 -110 212 C-104.58823529 208 -104.58823529 208 -102 208 C-102 207.34 -102 206.68 -102 206 C-101.34 206 -100.68 206 -100 206 C-100 205.34 -100 204.68 -100 204 C-96.32547562 201.1605948 -94.73113419 200 -90 200 C-90 200.66 -90 201.32 -90 202 C-89.43410156 202.07605469 -88.86820313 202.15210938 -88.28515625 202.23046875 C-85.20497902 203.26772501 -83.68785719 204.98598859 -81.4375 207.3125 C-80.67308594 208.09238281 -79.90867187 208.87226563 -79.12109375 209.67578125 C-74 215.28729282 -74 215.28729282 -74 218 C-73.34 218 -72.68 218 -72 218 C-72 218.66 -72 219.32 -72 220 C-71.34 220 -70.68 220 -70 220 C-70 220.66 -70 221.32 -70 222 C-69.34 222 -68.68 222 -68 222 C-68 222.66 -68 223.32 -68 224 C-67.34 224 -66.68 224 -66 224 C-64.51953125 225.5390625 -64.51953125 225.5390625 -62.8125 227.625 C-59.8899337 231.08787267 -56.84169098 233.97510908 -53.28515625 236.7734375 C-52.86105469 237.17820312 -52.43695312 237.58296875 -52 238 C-52 238.66 -52 239.32 -52 240 C-51.34 240 -50.68 240 -50 240 C-50.33 241.65 -50.66 243.3 -51 245 C-51.99 245.33 -52.98 245.66 -54 246 C-54 246.66 -54 247.32 -54 248 C-54.66 248 -55.32 248 -56 248 C-56.0825 248.57492187 -56.165 249.14984375 -56.25 249.7421875 C-57.22469171 252.67641568 -58.75739126 254.01854965 -61 256.125 C-63.89285588 258.77060724 -63.89285588 258.77060724 -66 262 C-66.66 262 -67.32 262 -68 262 C-68 262.66 -68 263.32 -68 264 C-68.66 264 -69.32 264 -70 264 C-70.268125 264.57234375 -70.53625 265.1446875 -70.8125 265.734375 C-72.04132636 268.07884634 -73.42522176 270.12404938 -75 272.25 C-75.7734375 273.30960937 -75.7734375 273.30960937 -76.5625 274.390625 C-77.036875 274.92171875 -77.51125 275.4528125 -78 276 C-78.66 276 -79.32 276 -80 276 C-80 276.66 -80 277.32 -80 278 C-80.66 278 -81.32 278 -82 278 C-82 278.66 -82 279.32 -82 280 C-82.66 280 -83.32 280 -84 280 C-84 280.66 -84 281.32 -84 282 C-84.66 282 -85.32 282 -86 282 C-86 282.66 -86 283.32 -86 284 C-86.66 284 -87.32 284 -88 284 C-88.2475 284.55171875 -88.495 285.1034375 -88.75 285.671875 C-90.24234474 288.45136707 -92.03672523 290.7814707 -94 293.25 C-94.70125 294.14203125 -95.4025 295.0340625 -96.125 295.953125 C-96.74375 296.62859375 -97.3625 297.3040625 -98 298 C-98.66 298 -99.32 298 -100 298 C-100 298.66 -100 299.32 -100 300 C-100.66 300 -101.32 300 -102 300 C-102 300.66 -102 301.32 -102 302 C-102.66 302 -103.32 302 -104 302 C-104 302.66 -104 303.32 -104 304 C-104.66 304 -105.32 304 -106 304 C-106.28875 304.763125 -106.5775 305.52625 -106.875 306.3125 C-108 309 -108 309 -110 312 C-113.72301503 312.47730962 -114.79191085 312.1387261 -118 310 C-118 309.34 -118 308.68 -118 308 C-118.61875 307.855625 -119.2375 307.71125 -119.875 307.5625 C-122 307 -122 307 -124 306 C-124 305.34 -124 304.68 -124 304 C-125.07701172 303.60941406 -125.07701172 303.60941406 -126.17578125 303.2109375 C-129.11920249 301.94888967 -131.53751182 300.41775419 -134.1875 298.625 C-142.00418015 293.61484065 -149.25166211 291.01337386 -158.33203125 289.390625 C-159.07118774 289.25543457 -159.81034424 289.12024414 -160.57189941 288.98095703 C-162.38065924 288.65062998 -164.19024868 288.3248511 -166 288 C-165.85809721 304.81253479 -165.71192708 321.6250304 -165.5625 338.4375 C-165.55147877 339.67942486 -165.54045753 340.92134972 -165.52910233 342.20090866 C-165.23102731 375.6879527 -164.89308959 409.1726813 -164.30493164 442.65600586 C-164.20906597 448.1171825 -164.12024345 453.57838792 -164.04266357 459.03985596 C-164.01399548 461.02894602 -163.98291172 463.0180026 -163.94952393 465.00701904 C-163.90499996 467.8158702 -163.8741765 470.62452244 -163.84765625 473.43359375 C-163.83254501 474.25126724 -163.81743378 475.06894073 -163.80186462 475.91139221 C-163.78060497 479.75432736 -163.80175016 482.7494945 -166 486 C-166.66 486 -167.32 486 -168 486 C-168 486.66 -168 487.32 -168 488 C-168.66 488 -169.32 488 -170 488 C-170 488.66 -170 489.32 -170 490 C-170.66 490 -171.32 490 -172 490 C-172 490.66 -172 491.32 -172 492 C-172.66 492 -173.32 492 -174 492 C-174 492.66 -174 493.32 -174 494 C-174.66 494 -175.32 494 -176 494 C-176 494.66 -176 495.32 -176 496 C-177.36328125 497.33984375 -177.36328125 497.33984375 -179.3125 498.9375 C-183.0157472 502.08326912 -186.50238092 505.38075917 -189.9375 508.8125 C-190.4219458 509.29259521 -190.9063916 509.77269043 -191.40551758 510.26733398 C-194.03332653 512.88471124 -194.03332653 512.88471124 -196 516 C-196.66 516 -197.32 516 -198 516 C-198 516.66 -198 517.32 -198 518 C-198.66 518 -199.32 518 -200 518 C-200 518.66 -200 519.32 -200 520 C-200.66 520 -201.32 520 -202 520 C-202 520.66 -202 521.32 -202 522 C-202.66 522 -203.32 522 -204 522 C-204 522.66 -204 523.32 -204 524 C-204.66 524 -205.32 524 -206 524 C-206.37125 524.804375 -206.37125 524.804375 -206.75 525.625 C-208.30652537 528.5823982 -210.03435673 531.29724051 -212 534 C-212.66 534 -213.32 534 -214 534 C-214 534.66 -214 535.32 -214 536 C-214.66 536 -215.32 536 -216 536 C-216 536.66 -216 537.32 -216 538 C-216.66 538 -217.32 538 -218 538 C-218.37125 538.804375 -218.37125 538.804375 -218.75 539.625 C-220.30652537 542.5823982 -222.03435673 545.29724051 -224 548 C-224.66 548 -225.32 548 -226 548 C-226 548.66 -226 549.32 -226 550 C-226.66 550 -227.32 550 -228 550 C-228 550.66 -228 551.32 -228 552 C-228.66 552 -229.32 552 -230 552 C-230.37125 552.804375 -230.37125 552.804375 -230.75 553.625 C-232.30652537 556.5823982 -234.03435673 559.29724051 -236 562 C-236.66 562 -237.32 562 -238 562 C-238 562.66 -238 563.32 -238 564 C-238.66 564 -239.32 564 -240 564 C-240.37125 564.804375 -240.37125 564.804375 -240.75 565.625 C-242.30652537 568.5823982 -244.03435673 571.29724051 -246 574 C-246.66 574 -247.32 574 -248 574 C-248 574.66 -248 575.32 -248 576 C-248.66 576 -249.32 576 -250 576 C-250 576.66 -250 577.32 -250 578 C-250.66 578 -251.32 578 -252 578 C-252.28875 578.763125 -252.5775 579.52625 -252.875 580.3125 C-254 583 -254 583 -256 586 C-256.66 586 -257.32 586 -258 586 C-258.66 587.98 -259.32 589.96 -260 592 C-260.66 592 -261.32 592 -262 592 C-262.66 593.32 -263.32 594.64 -264 596 C-264.66 596 -265.32 596 -266 596 C-266 595.34 -266 594.68 -266 594 C-267.98 593.34 -269.96 592.68 -272 592 C-272 591.34 -272 590.68 -272 590 C-272.72574219 589.731875 -273.45148438 589.46375 -274.19921875 589.1875 C-276.96864024 588.01329619 -279.30919434 586.6605676 -281.8125 585 C-282.60269531 584.484375 -283.39289063 583.96875 -284.20703125 583.4375 C-285.09455078 582.7259375 -285.09455078 582.7259375 -286 582 C-286 581.34 -286 580.68 -286 580 C-286.70769531 579.74347656 -287.41539062 579.48695313 -288.14453125 579.22265625 C-291.2358706 577.89900479 -293.87403286 576.27604128 -296.6875 574.4375 C-300.26284941 572.07724372 -300.26284941 572.07724372 -304 570 C-304 569.34 -304 568.68 -304 568 C-304.54527344 567.89300781 -305.09054687 567.78601563 -305.65234375 567.67578125 C-308.51690093 566.85120822 -310.92423043 565.57513845 -313.5625 564.1875 C-330.83226973 555.40519027 -351.88978631 549.86678073 -371 556 C-373.70072669 556.93358454 -376.34180443 557.94588796 -379 559 C-379.99 559.33 -380.98 559.66 -382 560 C-382 560.66 -382 561.32 -382 562 C-383.65002828 563.35386936 -385.3174387 564.68678142 -387 566 C-387.33 566.66 -387.66 567.32 -388 568 C-388.66 568 -389.32 568 -390 568 C-390 568.66 -390 569.32 -390 570 C-390.66 570 -391.32 570 -392 570 C-392 571.32 -392 572.64 -392 574 C-392.66 574 -393.32 574 -394 574 C-394.46466321 582.95767411 -394.12506672 589.9606364 -390 598 C-389.62617188 598.75023437 -389.25234375 599.50046875 -388.8671875 600.2734375 C-388.58101563 600.84320312 -388.29484375 601.41296875 -388 602 C-387.34 602 -386.68 602 -386 602 C-386 602.66 -386 603.32 -386 604 C-385.34 604 -384.68 604 -384 604 C-384 604.66 -384 605.32 -384 606 C-382.02 606.66 -380.04 607.32 -378 608 C-378 608.66 -378 609.32 -378 610 C-377.236875 610.144375 -376.47375 610.28875 -375.6875 610.4375 C-373 611 -373 611 -370 612 C-369.3125 614.0625 -369.3125 614.0625 -369 616 C-379.23164307 619.41054769 -386.05988757 617.86398278 -395.5 613.3125 C-396.7375 612.6628125 -396.7375 612.6628125 -398 612 C-398 611.34 -398 610.68 -398 610 C-398.5775 609.896875 -399.155 609.79375 -399.75 609.6875 C-402.35661158 608.89103535 -403.9735311 607.80934723 -406 606 C-406 605.34 -406 604.68 -406 604 C-406.66 604 -407.32 604 -408 604 C-408 603.34 -408 602.68 -408 602 C-408.66 602 -409.32 602 -410 602 C-414 596.58823529 -414 596.58823529 -414 594 C-414.66 594 -415.32 594 -416 594 C-419.59732933 585.09783907 -420.6442259 577.24986627 -420.5 567.6875 C-420.48864014 566.4094751 -420.47728027 565.1314502 -420.46557617 563.81469727 C-420.27626455 554.61931008 -419.37442602 546.62111421 -416 538 C-415.57976562 536.8965625 -415.15953125 535.793125 -414.7265625 534.65625 C-412.72289217 529.6531459 -410.51552019 524.76624879 -408 520 C-407.34 520 -406.68 520 -406 520 C-405.71125 519.236875 -405.4225 518.47375 -405.125 517.6875 C-404 515 -404 515 -402 512 C-401.34 512 -400.68 512 -400 512 C-400 511.34 -400 510.68 -400 510 C-399.34 510 -398.68 510 -398 510 C-397.62101562 509.14728516 -397.62101562 509.14728516 -397.234375 508.27734375 C-393.75490725 501.85794597 -387.83831717 496.3092341 -382 492 C-381.34 492 -380.68 492 -380 492 C-380 491.34 -380 490.68 -380 490 C-378.13671875 488.4921875 -378.13671875 488.4921875 -375.6875 486.875 C-374.88699219 486.33617187 -374.08648437 485.79734375 -373.26171875 485.2421875 C-371 484 -371 484 -368 484 C-368 483.34 -368 482.68 -368 482 C-366.75539217 481.32332002 -365.50403104 480.65905281 -364.25 480 C-363.55390625 479.62875 -362.8578125 479.2575 -362.140625 478.875 C-360 478 -360 478 -356 478 C-356 477.34 -356 476.68 -356 476 C-355.278125 475.608125 -354.55625 475.21625 -353.8125 474.8125 C-350.58978848 472.73564146 -349.13952841 470.61365545 -347.11328125 467.42578125 C-346.56220703 466.72001953 -346.56220703 466.72001953 -346 466 C-345.34 466 -344.68 466 -344 466 C-344 464.68 -344 463.36 -344 462 C-343.34 462 -342.68 462 -342 462 C-341.87625 461.360625 -341.7525 460.72125 -341.625 460.0625 C-341.16896477 457.82792735 -340.61317758 455.61305172 -340.00048828 453.41625977 C-338.32607456 445.83877173 -338.52187365 438.00328205 -338.3671875 430.27734375 C-338.32561594 428.51309721 -338.28339011 426.74886597 -338.24055481 424.98464966 C-338.12906613 420.27475934 -338.02987839 415.56469236 -337.93453598 410.85445023 C-337.87498662 407.93684434 -337.81271471 405.0193083 -337.74966431 402.10177612 C-337.25180637 378.94308111 -336.79609533 355.78086477 -336.70245361 332.6164856 C-336.69254778 330.26219323 -336.67808072 327.90791528 -336.65887451 325.55368042 C-336.63553476 322.3389627 -336.63249401 319.12494065 -336.63671875 315.91015625 C-336.62759964 314.99436798 -336.61848053 314.07857971 -336.60908508 313.13504028 C-336.64872512 307.66978791 -337.39300444 303.83581706 -340 299 C-342.06954847 297.21655822 -342.06954847 297.21655822 -344 296 C-344 295.34 -344 294.68 -344 294 C-344.57234375 293.87625 -345.1446875 293.7525 -345.734375 293.625 C-348.0793519 292.97810982 -350.05544812 292.04356313 -352.25 291 C-369.0821199 284.18286749 -389.06344529 289.15484766 -406 293 C-406.63023919 285.63320414 -405.91274291 280.62688019 -402.19140625 274.19140625 C-401.0565897 272.10408794 -400.45949513 270.31860186 -400 268 C-399.34 268 -398.68 268 -398 268 C-397.88527344 267.42765625 -397.77054687 266.8553125 -397.65234375 266.265625 C-396.93817644 263.78528344 -395.92692128 261.93631303 -394.5625 259.75 C-393.91474609 258.69039063 -393.91474609 258.69039063 -393.25390625 257.609375 C-392.84011719 257.07828125 -392.42632812 256.5471875 -392 256 C-391.34 256 -390.68 256 -390 256 C-390 255.34 -390 254.68 -390 254 C-389.34 254 -388.68 254 -388 254 C-387.7525 253.4225 -387.505 252.845 -387.25 252.25 C-385.81700012 249.67060021 -384.21575324 247.93878408 -382 246 C-381.34 246 -380.68 246 -380 246 C-380 245.34 -380 244.68 -380 244 C-374.58823529 240 -374.58823529 240 -372 240 C-372 239.34 -372 238.68 -372 238 C-360.63723394 231.54388292 -348.24948278 227.05360837 -335 228 C-335.0702388 227.14866989 -335.1404776 226.29733978 -335.21284485 225.42021179 C-335.86505828 217.0227345 -336.15992585 208.69052466 -336.16796875 200.26953125 C-336.17296135 198.41215584 -336.17296135 198.41215584 -336.17805481 196.51725769 C-336.18307261 193.93004728 -336.18546475 191.34283051 -336.18530273 188.75561523 C-336.18677865 186.10700046 -336.19233056 183.4588386 -336.20581055 180.81030273 C-336.22403369 176.96332532 -336.22903294 173.11654734 -336.23046875 169.26953125 C-336.23765427 168.08212845 -336.24483978 166.89472565 -336.25224304 165.67134094 C-336.24916641 164.57557236 -336.24608978 163.47980377 -336.24291992 162.35083008 C-336.24434494 161.3871199 -336.24576996 160.42340973 -336.24723816 159.43049622 C-336 157 -336 157 -334 154 C-333.34 154 -332.68 154 -332 154 C-332 153.34 -332 152.68 -332 152 C-330.09625645 150.55036041 -328.12532841 149.18815677 -326.125 147.875 C-324.48917969 146.78832031 -324.48917969 146.78832031 -322.8203125 145.6796875 C-320 144 -320 144 -318 144 C-318 143.34 -318 142.68 -318 142 C-317.34 142 -316.68 142 -316 142 C-316 141.34 -316 140.68 -316 140 C-314.3214487 138.50370821 -312.58041102 137.07707339 -310.8125 135.6875 C-307.7833166 133.29902741 -304.96472235 130.9640178 -302.26171875 128.20703125 C-300 126 -300 126 -298 126 C-298 125.34 -298 124.68 -298 124 C-297.34 124 -296.68 124 -296 124 C-296 123.34 -296 122.68 -296 122 C-295.34 122 -294.68 122 -294 122 C-294 121.34 -294 120.68 -294 120 C-293.34 120 -292.68 120 -292 120 C-292 119.34 -292 118.68 -292 118 C-291.34 118 -290.68 118 -290 118 C-290 117.34 -290 116.68 -290 116 C-289.34 116 -288.68 116 -288 116 C-288 115.34 -288 114.68 -288 114 C-285.8828125 112.0546875 -285.8828125 112.0546875 -283.125 109.875 C-282.22007812 109.15054688 -281.31515625 108.42609375 -280.3828125 107.6796875 C-278 106 -278 106 -276 106 C-276 105.34 -276 104.68 -276 104 C-275.34 104 -274.68 104 -274 104 C-274.33 103.01 -274.66 102.02 -275 101 C-276.08796875 100.81824219 -277.1759375 100.63648438 -278.296875 100.44921875 C-285.77867164 99.17816012 -293.16397497 97.81540132 -300.5078125 95.8828125 C-305.33863351 94.66159824 -310.20031941 93.58849978 -315.0625 92.5 C-326.35120655 89.96698368 -326.35120655 89.96698368 -331.625 88.4375 C-333.41350104 87.94664956 -335.20568043 87.46913477 -337 87 C-337.96631348 86.74621582 -337.96631348 86.74621582 -338.95214844 86.48730469 C-365.62860179 79.71440346 -391.05066368 81.04865217 -415 95 C-416.02268151 95.97679196 -417.03436839 96.96677418 -418 98 C-418.66 98 -419.32 98 -420 98 C-420 98.66 -420 99.32 -420 100 C-420.66 100 -421.32 100 -422 100 C-422.268125 100.5775 -422.53625 101.155 -422.8125 101.75 C-425.11764706 106.11764706 -425.11764706 106.11764706 -427 108 C-430.109375 108.109375 -430.109375 108.109375 -433 108 C-432.95609372 93.94998907 -428.65759326 82.29094141 -422 70 C-421.34 70 -420.68 70 -420 70 C-419.88527344 69.42765625 -419.77054687 68.8553125 -419.65234375 68.265625 C-418.93817644 65.78528344 -417.92692128 63.93631303 -416.5625 61.75 C-415.91474609 60.69039063 -415.91474609 60.69039063 -415.25390625 59.609375 C-414.84011719 59.07828125 -414.42632812 58.5471875 -414 58 C-413.34 58 -412.68 58 -412 58 C-411.7525 57.46375 -411.505 56.9275 -411.25 56.375 C-409.69347463 53.4176018 -407.96564327 50.70275949 -406 48 C-405.34 48 -404.68 48 -404 48 C-404 47.34 -404 46.68 -404 46 C-403.34 46 -402.68 46 -402 46 C-402 45.34 -402 44.68 -402 44 C-401.34 44 -400.68 44 -400 44 C-400 43.34 -400 42.68 -400 42 C-398.3203125 40.4921875 -398.3203125 40.4921875 -396.125 38.875 C-395.40570313 38.33617187 -394.68640625 37.79734375 -393.9453125 37.2421875 C-392 36 -392 36 -390 36 C-390 35.34 -390 34.68 -390 34 C-388.13671875 32.4921875 -388.13671875 32.4921875 -385.6875 30.875 C-384.88699219 30.33617187 -384.08648437 29.79734375 -383.26171875 29.2421875 C-381 28 -381 28 -378 28 C-378 27.34 -378 26.68 -378 26 C-375.46080994 24.70326398 -372.91885762 23.41252163 -370.375 22.125 C-369.66214844 21.76019531 -368.94929688 21.39539063 -368.21484375 21.01953125 C-362.8421856 18.30855696 -358.13206564 16 -352 16 C-351.67 15.34 -351.34 14.68 -351 14 C-348.70328373 13.23242903 -346.46865019 12.58577044 -344.125 12 C-343.4438916 11.82557373 -342.7627832 11.65114746 -342.06103516 11.47143555 C-318.76723643 5.61375444 -293.66804625 5.08792624 -270 9 C-268.5315644 9.21053795 -267.06279727 9.41877326 -265.59375 9.625 C-256.64597063 10.93366285 -248.25340068 12.95280314 -239.6796875 15.8125 C-236.38282483 16.87645568 -233.12464063 17.72865357 -229.75 18.5 C-224.4335924 19.76373623 -219.5827707 21.70119041 -214.59375 23.9140625 C-212.38612703 24.83833838 -210.334107 25.50455276 -208 26 C-208 26.66 -208 27.32 -208 28 C-207.0409375 27.87625 -207.0409375 27.87625 -206.0625 27.75 C-201.59707243 28.1145247 -197.99088772 30.05237724 -194 32 C-194.56302958 35.94120709 -195.6791945 38.7508723 -198 42 C-198.66 42 -199.32 42 -200 42 C-200.28875 42.763125 -200.5775 43.52625 -200.875 44.3125 C-202 47 -202 47 -204 50 C-204.66 50 -205.32 50 -206 50 C-206.28875 50.763125 -206.5775 51.52625 -206.875 52.3125 C-208 55 -208 55 -210 58 C-210.66 58 -211.32 58 -212 58 C-212.28875 58.763125 -212.5775 59.52625 -212.875 60.3125 C-214 63 -214 63 -216 66 C-216.66 66 -217.32 66 -218 66 C-218 66.66 -218 67.32 -218 68 C-218.66 68 -219.32 68 -220 68 C-220.28875 68.763125 -220.5775 69.52625 -220.875 70.3125 C-222 73 -222 73 -224 76 C-224.66 76 -225.32 76 -226 76 C-226 76.66 -226 77.32 -226 78 C-226.66 78 -227.32 78 -228 78 C-228 78.66 -228 79.32 -228 80 C-228.66 80 -229.32 80 -230 80 C-230.66 82.31 -231.32 84.62 -232 87 C-231.05125 86.175 -230.1025 85.35 -229.125 84.5 C-226.25 82 -226.25 82 -224 82 C-224 81.34 -224 80.68 -224 80 C-223.34 80 -222.68 80 -222 80 C-221.01 78.02 -221.01 78.02 -220 76 C-219.34 76 -218.68 76 -218 76 C-218 75.34 -218 74.68 -218 74 C-217.34 74 -216.68 74 -216 74 C-215.6596875 73.17242187 -215.6596875 73.17242187 -215.3125 72.328125 C-213.61274074 69.31307583 -211.45195184 67.18769631 -209 64.75 C-208.113125 63.85796875 -207.22625 62.9659375 -206.3125 62.046875 C-204 60 -204 60 -202 60 C-202 59.34 -202 58.68 -202 58 C-201.34 58 -200.68 58 -200 58 C-200 57.34 -200 56.68 -200 56 C-199.34 56 -198.68 56 -198 56 C-198 55.34 -198 54.68 -198 54 C-197.34 54 -196.68 54 -196 54 C-196 53.34 -196 52.68 -196 52 C-195.34 52 -194.68 52 -194 52 C-194 51.34 -194 50.68 -194 50 C-193.34 50 -192.68 50 -192 50 C-192 49.34 -192 48.68 -192 48 C-191.34 48 -190.68 48 -190 48 C-190 47.34 -190 46.68 -190 46 C-189.34 46 -188.68 46 -188 46 C-188 45.34 -188 44.68 -188 44 C-187.34 44 -186.68 44 -186 44 C-186 43.34 -186 42.68 -186 42 C-185.34 42 -184.68 42 -184 42 C-184 41.34 -184 40.68 -184 40 C-183.34 40 -182.68 40 -182 40 C-182 39.34 -182 38.68 -182 38 C-181.34 38 -180.68 38 -180 38 C-180 37.34 -180 36.68 -180 36 C-179.34 36 -178.68 36 -178 36 C-177.67708984 35.19949219 -177.67708984 35.19949219 -177.34765625 34.3828125 C-175.50423156 31.12342392 -172.99986627 28.5718823 -170.4375 25.875 C-166.81366093 22.23596593 -166.81366093 22.23596593 -164 18 C-163.34 18 -162.68 18 -162 18 C-162 17.34 -162 16.68 -162 16 C-161.34 16 -160.68 16 -160 16 C-160 15.34 -160 14.68 -160 14 C-159.34 14 -158.68 14 -158 14 C-158 13.34 -158 12.68 -158 12 C-152.08443256 9.10556256 -147.87775083 10.69205694 -141.9375 12.5625 C-141.00010986 12.84480469 -140.06271973 13.12710938 -139.09692383 13.41796875 C-131.92386791 15.61497613 -124.95322255 18.18784588 -118 21 C-115.3389229 22.01505714 -112.6694448 23.00719479 -110 24 C-107.33279454 24.9985644 -104.6663929 25.99926816 -102 27 C-100.78054688 27.45761719 -99.56109375 27.91523438 -98.3046875 28.38671875 C-97.17289063 28.81597656 -96.04109375 29.24523437 -94.875 29.6875 C-93.88242187 30.06261719 -92.88984375 30.43773437 -91.8671875 30.82421875 C-89 32 -89 32 -86.03125 33.51171875 C-71.69731201 40.54938676 -54.41407779 42.3027027 -39 38 C-36.23878286 36.80225349 -33.65709086 35.42344153 -31 34 C-30.01 34 -29.02 34 -28 34 C-28 33.34 -28 32.68 -28 32 C-26.49609375 30.7734375 -26.49609375 30.7734375 -24.4375 29.375 C-19.54443471 25.84015212 -14.73526108 21.47052216 -12 16 C-11.34 16 -10.68 16 -10 16 C-9.71125 15.236875 -9.4225 14.47375 -9.125 13.6875 C-8 11 -8 11 -6 8 C-5.34 8 -4.68 8 -4 8 C-3.896875 7.4225 -3.79375 6.845 -3.6875 6.25 C-2.89103535 3.64338842 -1.80934723 2.0264689 0 0 Z " fill="#FEFEFE" transform="translate(736,210)"/>
<path d="M0 0 C0.66 0 1.32 0 2 0 C2.14032054 19.14126615 2.24604455 38.28242755 2.31087303 57.42410183 C2.3417776 66.31245074 2.38389268 75.2004796 2.45263672 84.08862305 C2.51254335 91.83785966 2.55117386 99.58686443 2.56453097 107.33632618 C2.57233584 111.43765383 2.59060671 115.53831834 2.63438034 119.63943291 C2.67530031 123.50473973 2.6876306 127.36911437 2.67864609 131.23461723 C2.68028816 132.64832639 2.6921087 134.06206878 2.71523285 135.47558975 C2.87945448 146.0378119 0.84414224 151.55602026 -6.08203125 159.33984375 C-6.65308594 159.86707031 -7.22414063 160.39429688 -7.8125 160.9375 C-10.26028306 163.20101983 -10.26028306 163.20101983 -12 166 C-12.66 166 -13.32 166 -14 166 C-14 166.66 -14 167.32 -14 168 C-14.66 168 -15.32 168 -16 168 C-16 168.66 -16 169.32 -16 170 C-16.66 170 -17.32 170 -18 170 C-18 170.66 -18 171.32 -18 172 C-18.66 172 -19.32 172 -20 172 C-20.37125 172.804375 -20.37125 172.804375 -20.75 173.625 C-22.30652537 176.5823982 -24.03435673 179.29724051 -26 182 C-26.66 182 -27.32 182 -28 182 C-28.268125 182.845625 -28.53625 183.69125 -28.8125 184.5625 C-30.04782967 188.13845432 -31.49434451 191.53080475 -33 195 C-32.07662842 194.99476318 -31.15325684 194.98952637 -30.2019043 194.98413086 C-26.77465186 194.96708415 -23.3474445 194.9545475 -19.92016602 194.94506836 C-18.43708587 194.94004097 -16.95401067 194.93321815 -15.47094727 194.92456055 C-13.33869199 194.91242518 -11.20650227 194.90675575 -9.07421875 194.90234375 C-7.79119873 194.89710693 -6.50817871 194.89187012 -5.1862793 194.88647461 C-2 195 -2 195 1 196 C1.87697507 219.28507494 2.19119592 242.54359685 2.23828125 265.84375 C2.24234774 267.58706168 2.24646506 269.33037325 2.25063133 271.07368469 C2.26948936 279.23640184 2.28378725 287.39911078 2.2922433 295.5618453 C2.30210094 304.91163276 2.32871956 314.26118892 2.36874419 323.61089468 C2.3988973 330.9084217 2.41370927 338.20588185 2.41702431 345.50346994 C2.41936488 349.83605372 2.4282047 354.16838446 2.45348549 358.50090027 C2.47677382 362.55282235 2.48099675 366.60432406 2.47072411 370.65629578 C2.47022973 372.13652957 2.47652108 373.61678442 2.49028015 375.09695435 C2.56092069 383.14741342 2.42477235 389.13591031 -2 396 C-2.66 396 -3.32 396 -4 396 C-4 396.66 -4 397.32 -4 398 C-4.66 398 -5.32 398 -6 398 C-6 398.66 -6 399.32 -6 400 C-7.35268136 401.11691991 -8.75909557 402.16920843 -10.1875 403.1875 C-13.30538239 405.52224081 -15.70459184 407.63608321 -17.875 410.875 C-20 414 -20 414 -23 415 C-30.36284771 413.86288066 -36.73593917 410.16766848 -43.1171875 406.5234375 C-45.50054155 405.26394146 -47.37334204 404.46949925 -50 404 C-50 403.34 -50 402.68 -50 402 C-50.825 401.896875 -51.65 401.79375 -52.5 401.6875 C-56.59289012 400.88353944 -60.12540225 399.53647842 -64 398 C-64 397.34 -64 396.68 -64 396 C-64.84691406 395.87496094 -65.69382812 395.74992187 -66.56640625 395.62109375 C-70.11365154 394.97944187 -73.47875252 394.07528241 -76.9375 393.0625 C-78.10152344 392.72347656 -79.26554687 392.38445312 -80.46484375 392.03515625 C-81.63144531 391.69355469 -82.79804688 391.35195313 -84 391 C-86.33238133 390.32994561 -88.66608542 389.66470364 -91 389 C-89.71480435 386.13302508 -88.42870746 384.02392288 -86 382 C-85.34 382 -84.68 382 -84 382 C-84 381.34 -84 380.68 -84 380 C-83.34 380 -82.68 380 -82 380 C-82 379.34 -82 378.68 -82 378 C-80.28048026 376.46148234 -78.49812503 374.99268241 -76.6875 373.5625 C-72.83532998 370.54764431 -72.83532998 370.54764431 -69.26953125 367.21484375 C-68 366 -68 366 -66 366 C-66 365.34 -66 364.68 -66 364 C-65.34 364 -64.68 364 -64 364 C-64 363.34 -64 362.68 -64 362 C-63.34 362 -62.68 362 -62 362 C-62 361.34 -62 360.68 -62 360 C-61.34 360 -60.68 360 -60 360 C-60 359.34 -60 358.68 -60 358 C-59.34 358 -58.68 358 -58 358 C-57.71125 357.236875 -57.4225 356.47375 -57.125 355.6875 C-56 353 -56 353 -54 350 C-53.34 350 -52.68 350 -52 350 C-51.34 348.02 -50.68 346.04 -50 344 C-49.34 344 -48.68 344 -48 344 C-47.87238281 343.4121875 -47.74476563 342.824375 -47.61328125 342.21875 C-47 340 -47 340 -45.1875 336.5 C-39.20462452 324.79627278 -37.84059284 313.48458228 -37.89320374 300.55561829 C-37.89376044 299.42116671 -37.89431715 298.28671514 -37.89489073 297.11788625 C-37.89792051 293.32637161 -37.90809978 289.53491005 -37.91821289 285.7434082 C-37.92234221 283.02131235 -37.92491547 280.29921562 -37.92750549 277.57711792 C-37.93379144 271.72064273 -37.94352359 265.8641816 -37.95540047 260.00771523 C-37.97240275 251.53489088 -37.98193735 243.06206999 -37.9892792 234.58923235 C-38.00121412 220.83414229 -38.01616014 207.07905772 -38.03442383 193.32397461 C-38.03551395 192.50140988 -38.03660407 191.67884515 -38.03772723 190.83135422 C-38.05335112 179.14766142 -38.07194927 167.4639752 -38.0917251 155.78028878 C-38.09381507 154.54507733 -38.09381507 154.54507733 -38.09594727 153.28491211 C-38.09803756 152.05120865 -38.09803756 152.05120865 -38.10017008 150.79258189 C-38.12319598 137.08412808 -38.13851647 123.37567853 -38.14750665 109.66720837 C-38.1533612 101.21388402 -38.16573844 92.76061846 -38.18647944 84.30731728 C-38.20017677 78.51899972 -38.20667985 72.73070275 -38.20748956 66.94236914 C-38.20819418 63.60197371 -38.21329828 60.26173604 -38.2249527 56.92135048 C-38.23709465 53.30198121 -38.23699407 49.68281416 -38.23377991 46.06343079 C-38.24028771 45.00565927 -38.24679551 43.94788776 -38.25350052 42.85806257 C-38.25013512 41.88814034 -38.24676973 40.91821811 -38.24330235 39.9189043 C-38.24525462 38.6660667 -38.24525462 38.6660667 -38.24724633 37.38791925 C-37.96364915 34.64892138 -37.1236835 32.50179633 -36 30 C-35.34 30 -34.68 30 -34 30 C-34 29.34 -34 28.68 -34 28 C-33.34 28 -32.68 28 -32 28 C-32 27.34 -32 26.68 -32 26 C-31.34 26 -30.68 26 -30 26 C-30 25.34 -30 24.68 -30 24 C-24.58823529 20 -24.58823529 20 -22 20 C-22 19.34 -22 18.68 -22 18 C-16.58823529 14 -16.58823529 14 -14 14 C-14 13.34 -14 12.68 -14 12 C-13.34 12 -12.68 12 -12 12 C-12 11.34 -12 10.68 -12 10 C-10.3203125 8.4921875 -10.3203125 8.4921875 -8.125 6.875 C-7.40570312 6.33617187 -6.68640625 5.79734375 -5.9453125 5.2421875 C-4 4 -4 4 -2 4 C-2 3.34 -2 2.68 -2 2 C-1.34 2 -0.68 2 0 2 C0 1.34 0 0.68 0 0 Z " fill="#AF0C1C" transform="translate(536,300)"/>
<path d="M0 0 C0.33 0 0.66 0 1 0 C1 3.3 1 6.6 1 10 C0.67 10 0.34 10 0 10 C0 6.7 0 3.4 0 0 Z " fill="#B00C1D" transform="translate(73,512)"/>
<path d="M0 0 C2 1 2 1 2 1 Z " fill="#B00C1D" transform="translate(773,864)"/>
<path d="" fill="#B00C1D" transform="translate(0,0)"/>
<path d="" fill="#B00C1D" transform="translate(0,0)"/>
<path d="" fill="#B00C1D" transform="translate(0,0)"/>
<path d="" fill="#B00C1D" transform="translate(0,0)"/>
<path d="" fill="#B00C1D" transform="translate(0,0)"/>
<path d="" fill="#B00C1D" transform="translate(0,0)"/>
<path d="" fill="#B00C1D" transform="translate(0,0)"/>
<path d="" fill="#B00C1D" transform="translate(0,0)"/>
<path d="M0 0 C2 1 2 1 2 1 Z " fill="#B00C1D" transform="translate(386,90)"/>
<path d="M0 0 C2 1 2 1 2 1 Z " fill="#B00C1D" transform="translate(449,76)"/>
<path d="" fill="#B00C1D" transform="translate(0,0)"/>
<path d="" fill="#B00C1D" transform="translate(0,0)"/>
<path d="" fill="#B00C1D" transform="translate(0,0)"/>
<path d="" fill="#B00C1D" transform="translate(0,0)"/>
<path d="" fill="#B00C1D" transform="translate(0,0)"/>
<path d="" fill="#B00C1D" transform="translate(0,0)"/>
<path d="" fill="#B00C1D" transform="translate(0,0)"/>
<path d="" fill="#B00C1D" transform="translate(0,0)"/>
<path d="" fill="#B00C1D" transform="translate(0,0)"/>
<path d="" fill="#B00C1D" transform="translate(0,0)"/>
<path d="" fill="#B00C1D" transform="translate(0,0)"/>
<path d="" fill="#B00C1D" transform="translate(0,0)"/>
<path d="" fill="#B00C1D" transform="translate(0,0)"/>
<path d="" fill="#B00C1D" transform="translate(0,0)"/>
<path d="" fill="#B00C1D" transform="translate(0,0)"/>
<path d="" fill="#B00C1D" transform="translate(0,0)"/>
<path d="" fill="#B00C1D" transform="translate(0,0)"/>
<path d="" fill="#B00C1D" transform="translate(0,0)"/>
<path d="" fill="#B00C1D" transform="translate(0,0)"/>
<path d="" fill="#B00C1D" transform="translate(0,0)"/>
<path d="" fill="#B00C1D" transform="translate(0,0)"/>
<path d="" fill="#B00C1D" transform="translate(0,0)"/>
<path d="" fill="#B00C1D" transform="translate(0,0)"/>
<path d="" fill="#B00C1D" transform="translate(0,0)"/>
<path d="" fill="#B00C1D" transform="translate(0,0)"/>
<path d="" fill="#B00C1D" transform="translate(0,0)"/>
<path d="" fill="#B00C1D" transform="translate(0,0)"/>
<path d="" fill="#B00C1D" transform="translate(0,0)"/>
<path d="" fill="#B00C1D" transform="translate(0,0)"/>
<path d="" fill="#B00C1D" transform="translate(0,0)"/>
<path d="" fill="#B00C1D" transform="translate(0,0)"/>
<path d="" fill="#B00C1D" transform="translate(0,0)"/>
<path d="" fill="#B00C1D" transform="translate(0,0)"/>
<path d="" fill="#B00C1D" transform="translate(0,0)"/>
<path d="" fill="#B00C1D" transform="translate(0,0)"/>
<path d="" fill="#B00C1D" transform="translate(0,0)"/>
<path d="" fill="#B00C1D" transform="translate(0,0)"/>
<path d="" fill="#B00C1D" transform="translate(0,0)"/>
<path d="" fill="#B00C1D" transform="translate(0,0)"/>
<path d="" fill="#B00C1D" transform="translate(0,0)"/>
<path d="" fill="#B00C1D" transform="translate(0,0)"/>
<path d="" fill="#B00C1D" transform="translate(0,0)"/>
<path d="" fill="#B00C1D" transform="translate(0,0)"/>
<path d="" fill="#B00C1D" transform="translate(0,0)"/>
<path d="" fill="#B00C1D" transform="translate(0,0)"/>
<path d="" fill="#B00C1D" transform="translate(0,0)"/>
<path d="" fill="#B00C1D" transform="translate(0,0)"/>
<path d="" fill="#B00C1D" transform="translate(0,0)"/>
<path d="" fill="#B00C1D" transform="translate(0,0)"/>
<path d="" fill="#B00C1D" transform="translate(0,0)"/>
<path d="" fill="#B00C1D" transform="translate(0,0)"/>
<path d="" fill="#B00C1D" transform="translate(0,0)"/>
<path d="" fill="#B00C1D" transform="translate(0,0)"/>
<path d="" fill="#B00C1D" transform="translate(0,0)"/>
<path d="" fill="#B00C1D" transform="translate(0,0)"/>
<path d="" fill="#B00C1D" transform="translate(0,0)"/>
<path d="" fill="#B00C1D" transform="translate(0,0)"/>
<path d="" fill="#B00C1D" transform="translate(0,0)"/>
<path d="" fill="#B00C1D" transform="translate(0,0)"/>
<path d="" fill="#B00C1D" transform="translate(0,0)"/>
<path d="" fill="#B00C1D" transform="translate(0,0)"/>
<path d="" fill="#B00C1D" transform="translate(0,0)"/>
<path d="" fill="#B00C1D" transform="translate(0,0)"/>
<path d="" fill="#B00C1D" transform="translate(0,0)"/>
<path d="" fill="#B00C1D" transform="translate(0,0)"/>
<path d="" fill="#B00C1D" transform="translate(0,0)"/>
<path d="" fill="#B00C1D" transform="translate(0,0)"/>
<path d="" fill="#B00C1D" transform="translate(0,0)"/>
<path d="" fill="#B00C1D" transform="translate(0,0)"/>
<path d="" fill="#B00C1D" transform="translate(0,0)"/>
<path d="" fill="#B00C1D" transform="translate(0,0)"/>
<path d="" fill="#B00C1D" transform="translate(0,0)"/>
<path d="" fill="#B00C1D" transform="translate(0,0)"/>
<path d="" fill="#B00C1D" transform="translate(0,0)"/>
<path d="" fill="#B00C1D" transform="translate(0,0)"/>
<path d="" fill="#B00C1D" transform="translate(0,0)"/>
<path d="" fill="#B00C1D" transform="translate(0,0)"/>
<path d="" fill="#B00C1D" transform="translate(0,0)"/>
<path d="" fill="#B00C1D" transform="translate(0,0)"/>
<path d="" fill="#B00C1D" transform="translate(0,0)"/>
<path d="" fill="#B00C1D" transform="translate(0,0)"/>
<path d="" fill="#B00C1D" transform="translate(0,0)"/>
<path d="" fill="#B00C1D" transform="translate(0,0)"/>
<path d="" fill="#B00C1D" transform="translate(0,0)"/>
<path d="" fill="#B00C1D" transform="translate(0,0)"/>
<path d="" fill="#B00C1D" transform="translate(0,0)"/>
<path d="" fill="#B00C1D" transform="translate(0,0)"/>
<path d="" fill="#B00C1D" transform="translate(0,0)"/>
<path d="" fill="#B00C1D" transform="translate(0,0)"/>
<path d="" fill="#B00C1D" transform="translate(0,0)"/>
<path d="" fill="#B00C1D" transform="translate(0,0)"/>
<path d="" fill="#B00C1D" transform="translate(0,0)"/>
<path d="" fill="#B00C1D" transform="translate(0,0)"/>
<path d="" fill="#B00C1D" transform="translate(0,0)"/>
<path d="" fill="#B00C1D" transform="translate(0,0)"/>
<path d="" fill="#B00C1D" transform="translate(0,0)"/>
<path d="" fill="#B00C1D" transform="translate(0,0)"/>
<path d="" fill="#B00C1D" transform="translate(0,0)"/>
<path d="" fill="#B00C1D" transform="translate(0,0)"/>
<path d="" fill="#B00C1D" transform="translate(0,0)"/>
<path d="" fill="#B00C1D" transform="translate(0,0)"/>
<path d="" fill="#B00C1D" transform="translate(0,0)"/>
<path d="" fill="#B00C1D" transform="translate(0,0)"/>
<path d="" fill="#B00C1D" transform="translate(0,0)"/>
<path d="" fill="#B00C1D" transform="translate(0,0)"/>
<path d="" fill="#B00C1D" transform="translate(0,0)"/>
<path d="" fill="#B00C1D" transform="translate(0,0)"/>
<path d="" fill="#B00C1D" transform="translate(0,0)"/>
<path d="" fill="#B00C1D" transform="translate(0,0)"/>
<path d="" fill="#B00C1D" transform="translate(0,0)"/>
<path d="" fill="#B00C1D" transform="translate(0,0)"/>
<path d="" fill="#B00C1D" transform="translate(0,0)"/>
<path d="" fill="#B00C1D" transform="translate(0,0)"/>
<path d="" fill="#B00C1D" transform="translate(0,0)"/>
<path d="" fill="#B00C1D" transform="translate(0,0)"/>
<path d="" fill="#B00C1D" transform="translate(0,0)"/>
<path d="" fill="#B00C1D" transform="translate(0,0)"/>
<path d="" fill="#B00C1D" transform="translate(0,0)"/>
<path d="" fill="#B00C1D" transform="translate(0,0)"/>
<path d="" fill="#B00C1D" transform="translate(0,0)"/>
<path d="" fill="#B00C1D" transform="translate(0,0)"/>
<path d="" fill="#B00C1D" transform="translate(0,0)"/>
<path d="" fill="#B00C1D" transform="translate(0,0)"/>
<path d="" fill="#B00C1D" transform="translate(0,0)"/>
<path d="" fill="#B00C1D" transform="translate(0,0)"/>
<path d="" fill="#B00C1D" transform="translate(0,0)"/>
<path d="" fill="#B00C1D" transform="translate(0,0)"/>
<path d="" fill="#B00C1D" transform="translate(0,0)"/>
<path d="" fill="#B00C1D" transform="translate(0,0)"/>
<path d="" fill="#B00C1D" transform="translate(0,0)"/>
<path d="" fill="#B00C1D" transform="translate(0,0)"/>
<path d="" fill="#B00C1D" transform="translate(0,0)"/>
<path d="" fill="#B00C1D" transform="translate(0,0)"/>
<path d="" fill="#B00C1D" transform="translate(0,0)"/>
<path d="" fill="#B00C1D" transform="translate(0,0)"/>
<path d="" fill="#B00C1D" transform="translate(0,0)"/>
<path d="" fill="#B00C1D" transform="translate(0,0)"/>
<path d="" fill="#B00C1D" transform="translate(0,0)"/>
<path d="" fill="#B00C1D" transform="translate(0,0)"/>
<path d="" fill="#B00C1D" transform="translate(0,0)"/>
<path d="" fill="#B00C1D" transform="translate(0,0)"/>
<path d="" fill="#B00C1D" transform="translate(0,0)"/>
<path d="" fill="#B00C1D" transform="translate(0,0)"/>
<path d="" fill="#B00C1D" transform="translate(0,0)"/>
<path d="" fill="#B00C1D" transform="translate(0,0)"/>
<path d="" fill="#B00C1D" transform="translate(0,0)"/>
<path d="" fill="#B00C1D" transform="translate(0,0)"/>
<path d="" fill="#B00C1D" transform="translate(0,0)"/>
<path d="" fill="#B00C1D" transform="translate(0,0)"/>
<path d="" fill="#B00C1D" transform="translate(0,0)"/>
<path d="" fill="#B00C1D" transform="translate(0,0)"/>
<path d="" fill="#B00C1D" transform="translate(0,0)"/>
<path d="" fill="#B00C1D" transform="translate(0,0)"/>
<path d="" fill="#B00C1D" transform="translate(0,0)"/>
<path d="" fill="#B00C1D" transform="translate(0,0)"/>
<path d="" fill="#B00C1D" transform="translate(0,0)"/>
<path d="" fill="#B00C1D" transform="translate(0,0)"/>
<path d="" fill="#B00C1D" transform="translate(0,0)"/>
<path d="" fill="#B00C1D" transform="translate(0,0)"/>
<path d="" fill="#B00C1D" transform="translate(0,0)"/>
<path d="" fill="#B00C1D" transform="translate(0,0)"/>
<path d="" fill="#B00C1D" transform="translate(0,0)"/>
<path d="" fill="#B00C1D" transform="translate(0,0)"/>
<path d="" fill="#B00C1D" transform="translate(0,0)"/>
<path d="" fill="#B00C1D" transform="translate(0,0)"/>
<path d="" fill="#B00C1D" transform="translate(0,0)"/>
<path d="" fill="#B00C1D" transform="translate(0,0)"/>
<path d="" fill="#B00C1D" transform="translate(0,0)"/>
<path d="" fill="#B00C1D" transform="translate(0,0)"/>
<path d="" fill="#B00C1D" transform="translate(0,0)"/>
<path d="" fill="#B00C1D" transform="translate(0,0)"/>
<path d="" fill="#B00C1D" transform="translate(0,0)"/>
<path d="" fill="#B00C1D" transform="translate(0,0)"/>
<path d="" fill="#B00C1D" transform="translate(0,0)"/>
<path d="" fill="#B00C1D" transform="translate(0,0)"/>
<path d="" fill="#B00C1D" transform="translate(0,0)"/>
<path d="" fill="#B00C1D" transform="translate(0,0)"/>
<path d="" fill="#B00C1D" transform="translate(0,0)"/>
<path d="" fill="#B00C1D" transform="translate(0,0)"/>
<path d="" fill="#B00C1D" transform="translate(0,0)"/>
<path d="" fill="#B00C1D" transform="translate(0,0)"/>
<path d="" fill="#B00C1D" transform="translate(0,0)"/>
<path d="" fill="#B00C1D" transform="translate(0,0)"/>
<path d="" fill="#B00C1D" transform="translate(0,0)"/>
<path d="" fill="#B00C1D" transform="translate(0,0)"/>
<path d="" fill="#B00C1D" transform="translate(0,0)"/>
<path d="" fill="#B00C1D" transform="translate(0,0)"/>
<path d="" fill="#B00C1D" transform="translate(0,0)"/>
<path d="" fill="#B00C1D" transform="translate(0,0)"/>
<path d="" fill="#B00C1D" transform="translate(0,0)"/>
<path d="" fill="#B00C1D" transform="translate(0,0)"/>
<path d="" fill="#B00C1D" transform="translate(0,0)"/>
<path d="" fill="#B00C1D" transform="translate(0,0)"/>
<path d="" fill="#B00C1D" transform="translate(0,0)"/>
<path d="" fill="#B00C1D" transform="translate(0,0)"/>
<path d="" fill="#B00C1D" transform="translate(0,0)"/>
<path d="" fill="#B00C1D" transform="translate(0,0)"/>
<path d="" fill="#B00C1D" transform="translate(0,0)"/>
<path d="" fill="#B00C1D" transform="translate(0,0)"/>
<path d="" fill="#B00C1D" transform="translate(0,0)"/>
<path d="" fill="#B00C1D" transform="translate(0,0)"/>
<path d="" fill="#B00C1D" transform="translate(0,0)"/>
<path d="" fill="#B00C1D" transform="translate(0,0)"/>
<path d="" fill="#B00C1D" transform="translate(0,0)"/>
<path d="" fill="#B00C1D" transform="translate(0,0)"/>
<path d="" fill="#B00C1D" transform="translate(0,0)"/>
<path d="" fill="#B00C1D" transform="translate(0,0)"/>
<path d="" fill="#B00C1D" transform="translate(0,0)"/>
<path d="" fill="#B00C1D" transform="translate(0,0)"/>
<path d="" fill="#B00C1D" transform="translate(0,0)"/>
<path d="" fill="#B00C1D" transform="translate(0,0)"/>
<path d="" fill="#B00C1D" transform="translate(0,0)"/>
<path d="" fill="#B00C1D" transform="translate(0,0)"/>
<path d="" fill="#B00C1D" transform="translate(0,0)"/>
<path d="" fill="#B00C1D" transform="translate(0,0)"/>
<path d="" fill="#B00C1D" transform="translate(0,0)"/>
<path d="" fill="#B00C1D" transform="translate(0,0)"/>
<path d="" fill="#B00C1D" transform="translate(0,0)"/>
<path d="" fill="#B00C1D" transform="translate(0,0)"/>
<path d="" fill="#B00C1D" transform="translate(0,0)"/>
<path d="" fill="#B00C1D" transform="translate(0,0)"/>
<path d="" fill="#B00C1D" transform="translate(0,0)"/>
<path d="" fill="#B00C1D" transform="translate(0,0)"/>
<path d="" fill="#B00C1D" transform="translate(0,0)"/>
<path d="" fill="#B00C1D" transform="translate(0,0)"/>
<path d="" fill="#B00C1D" transform="translate(0,0)"/>
<path d="" fill="#B00C1D" transform="translate(0,0)"/>
<path d="" fill="#B00C1D" transform="translate(0,0)"/>
<path d="" fill="#B00C1D" transform="translate(0,0)"/>
<path d="" fill="#B00C1D" transform="translate(0,0)"/>
<path d="" fill="#B00C1D" transform="translate(0,0)"/>
<path d="" fill="#B00C1D" transform="translate(0,0)"/>
<path d="" fill="#B00C1D" transform="translate(0,0)"/>
<path d="" fill="#B00C1D" transform="translate(0,0)"/>
<path d="" fill="#B00C1D" transform="translate(0,0)"/>
<path d="" fill="#B00C1D" transform="translate(0,0)"/>
<path d="" fill="#B00C1D" transform="translate(0,0)"/>
<path d="" fill="#B00C1D" transform="translate(0,0)"/>
<path d="" fill="#B00C1D" transform="translate(0,0)"/>
<path d="" fill="#B00C1D" transform="translate(0,0)"/>
<path d="" fill="#B00C1D" transform="translate(0,0)"/>
<path d="" fill="#B00C1D" transform="translate(0,0)"/>
<path d="" fill="#B00C1D" transform="translate(0,0)"/>
<path d="" fill="#B00C1D" transform="translate(0,0)"/>
<path d="" fill="#B00C1D" transform="translate(0,0)"/>
<path d="" fill="#B00C1D" transform="translate(0,0)"/>
<path d="" fill="#B00C1D" transform="translate(0,0)"/>
<path d="" fill="#B00C1D" transform="translate(0,0)"/>
<path d="" fill="#B00C1D" transform="translate(0,0)"/>
<path d="" fill="#B00C1D" transform="translate(0,0)"/>
<path d="" fill="#B00C1D" transform="translate(0,0)"/>
<path d="" fill="#B00C1D" transform="translate(0,0)"/>
<path d="" fill="#B00C1D" transform="translate(0,0)"/>
<path d="" fill="#B00C1D" transform="translate(0,0)"/>
<path d="" fill="#B00C1D" transform="translate(0,0)"/>
<path d="" fill="#B00C1D" transform="translate(0,0)"/>
<path d="" fill="#B00C1D" transform="translate(0,0)"/>
<path d="" fill="#B00C1D" transform="translate(0,0)"/>
<path d="" fill="#B00C1D" transform="translate(0,0)"/>
<path d="" fill="#B00C1D" transform="translate(0,0)"/>
<path d="" fill="#B00C1D" transform="translate(0,0)"/>
<path d="" fill="#B00C1D" transform="translate(0,0)"/>
<path d="" fill="#B00C1D" transform="translate(0,0)"/>
<path d="" fill="#B00C1D" transform="translate(0,0)"/>
<path d="" fill="#B00C1D" transform="translate(0,0)"/>
<path d="" fill="#B00C1D" transform="translate(0,0)"/>
<path d="" fill="#B00C1D" transform="translate(0,0)"/>
<path d="" fill="#B00C1D" transform="translate(0,0)"/>
<path d="" fill="#B00C1D" transform="translate(0,0)"/>
<path d="" fill="#B00C1D" transform="translate(0,0)"/>
<path d="" fill="#B00C1D" transform="translate(0,0)"/>
<path d="" fill="#B00C1D" transform="translate(0,0)"/>
<path d="" fill="#B00C1D" transform="translate(0,0)"/>
<path d="" fill="#B00C1D" transform="translate(0,0)"/>
<path d="" fill="#B00C1D" transform="translate(0,0)"/>
<path d="" fill="#B00C1D" transform="translate(0,0)"/>
<path d="" fill="#B00C1D" transform="translate(0,0)"/>
<path d="" fill="#B00C1D" transform="translate(0,0)"/>
<path d="" fill="#B00C1D" transform="translate(0,0)"/>
<path d="" fill="#B00C1D" transform="translate(0,0)"/>
<path d="" fill="#B00C1D" transform="translate(0,0)"/>
<path d="" fill="#B00C1D" transform="translate(0,0)"/>
<path d="" fill="#B00C1D" transform="translate(0,0)"/>
<path d="" fill="#B00C1D" transform="translate(0,0)"/>
<path d="" fill="#B00C1D" transform="translate(0,0)"/>
<path d="" fill="#B00C1D" transform="translate(0,0)"/>
<path d="" fill="#B00C1D" transform="translate(0,0)"/>
<path d="" fill="#B00C1D" transform="translate(0,0)"/>
<path d="" fill="#B00C1D" transform="translate(0,0)"/>
<path d="" fill="#B00C1D" transform="translate(0,0)"/>
<path d="" fill="#B00C1D" transform="translate(0,0)"/>
<path d="" fill="#B00C1D" transform="translate(0,0)"/>
<path d="" fill="#B00C1D" transform="translate(0,0)"/>
<path d="" fill="#B00C1D" transform="translate(0,0)"/>
<path d="" fill="#B00C1D" transform="translate(0,0)"/>
<path d="" fill="#B00C1D" transform="translate(0,0)"/>
<path d="" fill="#B00C1D" transform="translate(0,0)"/>
<path d="" fill="#B00C1D" transform="translate(0,0)"/>
<path d="" fill="#B00C1D" transform="translate(0,0)"/>
<path d="" fill="#B00C1D" transform="translate(0,0)"/>
<path d="" fill="#B00C1D" transform="translate(0,0)"/>
<path d="" fill="#B00C1D" transform="translate(0,0)"/>
<path d="" fill="#B00C1D" transform="translate(0,0)"/>
<path d="" fill="#B00C1D" transform="translate(0,0)"/>
<path d="" fill="#B00C1D" transform="translate(0,0)"/>
<path d="" fill="#B00C1D" transform="translate(0,0)"/>
<path d="" fill="#B00C1D" transform="translate(0,0)"/>
<path d="" fill="#B00C1D" transform="translate(0,0)"/>
<path d="" fill="#B00C1D" transform="translate(0,0)"/>
<path d="" fill="#B00C1D" transform="translate(0,0)"/>
<path d="" fill="#B00C1D" transform="translate(0,0)"/>
<path d="" fill="#B00C1D" transform="translate(0,0)"/>
<path d="" fill="#B00C1D" transform="translate(0,0)"/>
<path d="" fill="#B00C1D" transform="translate(0,0)"/>
<path d="" fill="#B00C1D" transform="translate(0,0)"/>
<path d="" fill="#B00C1D" transform="translate(0,0)"/>
<path d="" fill="#B00C1D" transform="translate(0,0)"/>
<path d="" fill="#B00C1D" transform="translate(0,0)"/>
<path d="" fill="#B00C1D" transform="translate(0,0)"/>
<path d="" fill="#B00C1D" transform="translate(0,0)"/>
<path d="" fill="#B00C1D" transform="translate(0,0)"/>
<path d="" fill="#B00C1D" transform="translate(0,0)"/>
<path d="" fill="#B00C1D" transform="translate(0,0)"/>
<path d="" fill="#B00C1D" transform="translate(0,0)"/>
<path d="" fill="#B00C1D" transform="translate(0,0)"/>
<path d="" fill="#B00C1D" transform="translate(0,0)"/>
<path d="" fill="#B00C1D" transform="translate(0,0)"/>
<path d="" fill="#B00C1D" transform="translate(0,0)"/>
<path d="" fill="#B00C1D" transform="translate(0,0)"/>
<path d="" fill="#B00C1D" transform="translate(0,0)"/>
<path d="" fill="#B00C1D" transform="translate(0,0)"/>
<path d="" fill="#B00C1D" transform="translate(0,0)"/>
<path d="" fill="#B00C1D" transform="translate(0,0)"/>
<path d="" fill="#B00C1D" transform="translate(0,0)"/>
<path d="" fill="#B00C1D" transform="translate(0,0)"/>
<path d="" fill="#B00C1D" transform="translate(0,0)"/>
<path d="" fill="#B00C1D" transform="translate(0,0)"/>
<path d="" fill="#B00C1D" transform="translate(0,0)"/>
<path d="" fill="#B00C1D" transform="translate(0,0)"/>
<path d="" fill="#B00C1D" transform="translate(0,0)"/>
<path d="" fill="#B00C1D" transform="translate(0,0)"/>
<path d="" fill="#B00C1D" transform="translate(0,0)"/>
<path d="" fill="#B00C1D" transform="translate(0,0)"/>
<path d="" fill="#B00C1D" transform="translate(0,0)"/>
<path d="" fill="#B00C1D" transform="translate(0,0)"/>
<path d="" fill="#B00C1D" transform="translate(0,0)"/>
<path d="" fill="#B00C1D" transform="translate(0,0)"/>
<path d="" fill="#B00C1D" transform="translate(0,0)"/>
<path d="" fill="#B00C1D" transform="translate(0,0)"/>
<path d="" fill="#B00C1D" transform="translate(0,0)"/>
<path d="" fill="#B00C1D" transform="translate(0,0)"/>
<path d="" fill="#B00C1D" transform="translate(0,0)"/>
<path d="" fill="#B00C1D" transform="translate(0,0)"/>
<path d="" fill="#B00C1D" transform="translate(0,0)"/>
<path d="" fill="#B00C1D" transform="translate(0,0)"/>
<path d="" fill="#B00C1D" transform="translate(0,0)"/>
<path d="" fill="#B00C1D" transform="translate(0,0)"/>
<path d="" fill="#B00C1D" transform="translate(0,0)"/>
<path d="" fill="#B00C1D" transform="translate(0,0)"/>
<path d="" fill="#B00C1D" transform="translate(0,0)"/>
<path d="" fill="#B00C1D" transform="translate(0,0)"/>
<path d="" fill="#B00C1D" transform="translate(0,0)"/>
<path d="" fill="#B00C1D" transform="translate(0,0)"/>
<path d="" fill="#B00C1D" transform="translate(0,0)"/>
<path d="" fill="#B00C1D" transform="translate(0,0)"/>
<path d="" fill="#B00C1D" transform="translate(0,0)"/>
<path d="" fill="#B00C1D" transform="translate(0,0)"/>
<path d="" fill="#B00C1D" transform="translate(0,0)"/>
<path d="" fill="#B00C1D" transform="translate(0,0)"/>
<path d="" fill="#B00C1D" transform="translate(0,0)"/>
<path d="" fill="#B00C1D" transform="translate(0,0)"/>
<path d="" fill="#B00C1D" transform="translate(0,0)"/>
<path d="" fill="#B00C1D" transform="translate(0,0)"/>
<path d="" fill="#B00C1D" transform="translate(0,0)"/>
<path d="" fill="#B00C1D" transform="translate(0,0)"/>
<path d="" fill="#B00C1D" transform="translate(0,0)"/>
<path d="" fill="#B00C1D" transform="translate(0,0)"/>
<path d="" fill="#B00C1D" transform="translate(0,0)"/>
<path d="" fill="#B00C1D" transform="translate(0,0)"/>
<path d="" fill="#B00C1D" transform="translate(0,0)"/>
<path d="" fill="#B00C1D" transform="translate(0,0)"/>
<path d="" fill="#B00C1D" transform="translate(0,0)"/>
<path d="" fill="#B00C1D" transform="translate(0,0)"/>
<path d="" fill="#B00C1D" transform="translate(0,0)"/>
<path d="" fill="#B00C1D" transform="translate(0,0)"/>
<path d="" fill="#B00C1D" transform="translate(0,0)"/>
<path d="" fill="#B00C1D" transform="translate(0,0)"/>
<path d="" fill="#B00C1D" transform="translate(0,0)"/>
<path d="" fill="#B00C1D" transform="translate(0,0)"/>
<path d="" fill="#B00C1D" transform="translate(0,0)"/>
<path d="" fill="#B00C1D" transform="translate(0,0)"/>
<path d="" fill="#B00C1D" transform="translate(0,0)"/>
<path d="" fill="#B00C1D" transform="translate(0,0)"/>
<path d="" fill="#B00C1D" transform="translate(0,0)"/>
<path d="" fill="#B00C1D" transform="translate(0,0)"/>
<path d="" fill="#B00C1D" transform="translate(0,0)"/>
<path d="" fill="#B00C1D" transform="translate(0,0)"/>
<path d="" fill="#B00C1D" transform="translate(0,0)"/>
<path d="" fill="#B00C1D" transform="translate(0,0)"/>
<path d="" fill="#B00C1D" transform="translate(0,0)"/>
<path d="" fill="#B00C1D" transform="translate(0,0)"/>
<path d="" fill="#B00C1D" transform="translate(0,0)"/>
<path d="" fill="#B00C1D" transform="translate(0,0)"/>
<path d="" fill="#B00C1D" transform="translate(0,0)"/>
<path d="" fill="#B00C1D" transform="translate(0,0)"/>
<path d="" fill="#B00C1D" transform="translate(0,0)"/>
<path d="" fill="#B00C1D" transform="translate(0,0)"/>
<path d="" fill="#B00C1D" transform="translate(0,0)"/>
<path d="" fill="#B00C1D" transform="translate(0,0)"/>
<path d="" fill="#B00C1D" transform="translate(0,0)"/>
<path d="" fill="#B00C1D" transform="translate(0,0)"/>
<path d="" fill="#B00C1D" transform="translate(0,0)"/>
<path d="" fill="#B00C1D" transform="translate(0,0)"/>
<path d="" fill="#B00C1D" transform="translate(0,0)"/>
<path d="" fill="#B00C1D" transform="translate(0,0)"/>
<path d="" fill="#B00C1D" transform="translate(0,0)"/>
<path d="" fill="#B00C1D" transform="translate(0,0)"/>
<path d="" fill="#B00C1D" transform="translate(0,0)"/>
<path d="" fill="#B00C1D" transform="translate(0,0)"/>
<path d="" fill="#B00C1D" transform="translate(0,0)"/>
<path d="" fill="#B00C1D" transform="translate(0,0)"/>
<path d="" fill="#B00C1D" transform="translate(0,0)"/>
<path d="" fill="#B00C1D" transform="translate(0,0)"/>
<path d="" fill="#B00C1D" transform="translate(0,0)"/>
<path d="" fill="#B00C1D" transform="translate(0,0)"/>
<path d="" fill="#B00C1D" transform="translate(0,0)"/>
<path d="" fill="#B00C1D" transform="translate(0,0)"/>
<path d="" fill="#B00C1D" transform="translate(0,0)"/>
<path d="" fill="#B00C1D" transform="translate(0,0)"/>
<path d="" fill="#B00C1D" transform="translate(0,0)"/>
<path d="" fill="#B00C1D" transform="translate(0,0)"/>
<path d="" fill="#B00C1D" transform="translate(0,0)"/>
<path d="" fill="#B00C1D" transform="translate(0,0)"/>
<path d="" fill="#B00C1D" transform="translate(0,0)"/>
<path d="" fill="#B00C1D" transform="translate(0,0)"/>
<path d="" fill="#B00C1D" transform="translate(0,0)"/>
<path d="" fill="#B00C1D" transform="translate(0,0)"/>
<path d="" fill="#B00C1D" transform="translate(0,0)"/>
<path d="" fill="#B00C1D" transform="translate(0,0)"/>
<path d="" fill="#B00C1D" transform="translate(0,0)"/>
<path d="" fill="#B00C1D" transform="translate(0,0)"/>
<path d="" fill="#B00C1D" transform="translate(0,0)"/>
<path d="" fill="#B00C1D" transform="translate(0,0)"/>
<path d="" fill="#B00C1D" transform="translate(0,0)"/>
<path d="" fill="#B00C1D" transform="translate(0,0)"/>
<path d="" fill="#B00C1D" transform="translate(0,0)"/>
<path d="" fill="#B00C1D" transform="translate(0,0)"/>
<path d="" fill="#B00C1D" transform="translate(0,0)"/>
<path d="" fill="#B00C1D" transform="translate(0,0)"/>
<path d="" fill="#B00C1D" transform="translate(0,0)"/>
<path d="" fill="#B00C1D" transform="translate(0,0)"/>
<path d="" fill="#B00C1D" transform="translate(0,0)"/>
<path d="" fill="#B00C1D" transform="translate(0,0)"/>
<path d="" fill="#B00C1D" transform="translate(0,0)"/>
<path d="" fill="#B00C1D" transform="translate(0,0)"/>
<path d="" fill="#B00C1D" transform="translate(0,0)"/>
<path d="" fill="#B00C1D" transform="translate(0,0)"/>
<path d="" fill="#B00C1D" transform="translate(0,0)"/>
<path d="" fill="#B00C1D" transform="translate(0,0)"/>
<path d="" fill="#B00C1D" transform="translate(0,0)"/>
<path d="" fill="#B00C1D" transform="translate(0,0)"/>
<path d="" fill="#B00C1D" transform="translate(0,0)"/>
<path d="" fill="#B00C1D" transform="translate(0,0)"/>
<path d="" fill="#B00C1D" transform="translate(0,0)"/>
<path d="" fill="#B00C1D" transform="translate(0,0)"/>
<path d="" fill="#B00C1D" transform="translate(0,0)"/>
<path d="" fill="#B00C1D" transform="translate(0,0)"/>
<path d="" fill="#B00C1D" transform="translate(0,0)"/>
<path d="" fill="#B00C1D" transform="translate(0,0)"/>
<path d="" fill="#B00C1D" transform="translate(0,0)"/>
<path d="" fill="#B00C1D" transform="translate(0,0)"/>
<path d="" fill="#B00C1D" transform="translate(0,0)"/>
<path d="" fill="#B00C1D" transform="translate(0,0)"/>
<path d="" fill="#B00C1D" transform="translate(0,0)"/>
<path d="" fill="#B00C1D" transform="translate(0,0)"/>
<path d="" fill="#B00C1D" transform="translate(0,0)"/>
<path d="" fill="#B00C1D" transform="translate(0,0)"/>
<path d="" fill="#B00C1D" transform="translate(0,0)"/>
<path d="" fill="#B00C1D" transform="translate(0,0)"/>
<path d="" fill="#B00C1D" transform="translate(0,0)"/>
<path d="" fill="#B00C1D" transform="translate(0,0)"/>
<path d="" fill="#B00C1D" transform="translate(0,0)"/>
<path d="" fill="#B00C1D" transform="translate(0,0)"/>
<path d="" fill="#B00C1D" transform="translate(0,0)"/>
<path d="" fill="#B00C1D" transform="translate(0,0)"/>
<path d="" fill="#B00C1D" transform="translate(0,0)"/>
<path d="" fill="#B00C1D" transform="translate(0,0)"/>
<path d="" fill="#B00C1D" transform="translate(0,0)"/>
</svg>
