<svg preserveAspectRatio="xMidYMid meet" viewBox="2.048 434.176 1009.664 135.168" xmlns="http://www.w3.org/2000/svg" version="1.0" style="max-height: 500px" width="1009.664" height="135.168">

<g stroke="none" fill="#000000" transform="translate(0.000000,1024.000000) scale(0.100000,-0.100000)">
<path d="M497 5819 c-91 -21 -168 -86 -186 -156 -18 -74 -21 -141 -6 -147 18&#10;-7 31 11 39 54 9 50 32 79 80 101 74 34 134 26 376 -48 65 -20 147 -37 190&#10;-40 71 -5 77 -4 108 21 21 18 37 45 47 79 23 76 24 75 -52 70 -53 -4 -97 2&#10;-198 25 -230 54 -309 62 -398 41z"/>
<path d="M1160 5820 c0 -5 9 -24 20 -42 19 -31 20 -51 20 -390 0 -197 4 -368&#10;9 -381 8 -20 5 -31 -15 -58 -13 -18 -24 -38 -24 -45 0 -15 85 -92 118 -107 20&#10;-9 29 -5 77 43 30 30 55 58 55 63 0 5 -10 22 -21 39 -20 28 -21 41 -20 216 l1&#10;187 36 34 36 33 29 -43 29 -44 0 -251 c0 -303 -6 -335 -80 -405 -37 -35 -46&#10;-49 -38 -57 19 -19 28 -15 128 51 97 64 132 103 150 166 5 20 10 149 10 286 0&#10;209 3 254 15 272 15 21 14 23 -12 37 -15 7 -54 42 -85 76 l-57 62 -33 -19&#10;c-18 -10 -42 -32 -53 -49 -11 -16 -32 -45 -47 -64 l-28 -35 0 177 c0 174 0&#10;177 25 206 14 17 25 33 25 37 0 15 -65 -6 -111 -36 l-48 -31 -39 41 c-36 38&#10;-72 54 -72 31z"/>
<path d="M7143 5816 c-93 -31 -145 -102 -159 -218 -11 -97 18 -117 45 -29 16&#10;56 61 91 116 91 46 0 152 -20 247 -47 l58 -16 -66 -46 -66 -46 -2 -165 c-1&#10;-144 -4 -171 -22 -210 -23 -50 -47 -75 -67 -67 -27 10 -69 108 -79 184 -8 67&#10;-6 85 13 147 19 63 28 78 91 139 53 51 68 71 59 80 -13 13 -46 -4 -133 -70&#10;-72 -55 -121 -113 -156 -183 -25 -50 -27 -65 -27 -170 0 -114 0 -115 39 -187&#10;46 -87 96 -134 185 -177 60 -28 75 -31 161 -31 117 0 155 17 250 114 58 58&#10;120 157 120 190 0 25 -31 8 -66 -34 -20 -25 -50 -55 -66 -67 l-29 -20 3 268&#10;c2 148 7 277 12 287 15 31 -13 19 -34 -15 -19 -31 -20 -51 -20 -295 l0 -263&#10;-26 -6 c-40 -10 -126 2 -182 26 -77 33 -81 43 -28 74 25 15 73 52 106 83 l61&#10;56 -3 198 -3 198 61 -6 c86 -8 126 2 167 42 33 32 84 141 72 153 -3 3 -27 -2&#10;-53 -11 -56 -20 -127 -13 -292 28 -130 32 -231 40 -287 21z"/>
<path d="M3444 5794 c-23 -8 -59 -30 -80 -48 -22 -18 -49 -38 -61 -45 -23 -12&#10;-32 -41 -13 -41 6 0 10 -110 10 -309 0 -188 4 -320 10 -337 8 -21 7 -32 -7&#10;-52 -10 -14 -22 -31 -28 -39 -8 -11 5 -28 53 -74 34 -32 70 -59 78 -59 16 0&#10;144 117 144 132 0 4 -9 8 -19 8 -11 0 -27 10 -35 22 -23 32 -23 769 -1 808 29&#10;52 19 59 -51 34z"/>
<path d="M2979 5738 c-334 -210 -341 -217 -343 -311 l-1 -48 -35 6 c-29 5 -40&#10;2 -59 -19 -22 -24 -45 -110 -34 -128 2 -5 31 -8 64 -8 l59 0 0 -137 c0 -76 -4&#10;-145 -10 -153 -6 -9 -22 -13 -47 -12 -46 4 -57 -7 -98 -96 -21 -46 -26 -65&#10;-17 -74 8 -8 20 -3 47 21 42 37 74 39 140 11 26 -11 54 -20 63 -20 31 0 205&#10;123 234 165 33 47 48 118 48 221 l0 74 95 0 95 0 0 55 c0 30 5 66 12 80 14 31&#10;4 43 -22 27 -11 -7 -54 -12 -100 -12 l-80 0 0 130 0 130 25 -10 c14 -5 39 -17&#10;56 -26 39 -20 50 -15 139 58 77 64 89 90 37 81 -24 -4 -54 3 -104 24 l-70 30&#10;-94 -59z m-121 -303 l3 -121 -36 -34 -36 -35 3 141 c3 146 12 179 47 172 13&#10;-3 16 -23 19 -123z m1 -352 c-4 -127 -7 -153 -25 -183 -26 -46 -49 -48 -137&#10;-13 l-72 28 43 6 c91 12 120 64 121 222 l1 87 36 0 36 0 -3 -147z"/>
<path d="M2738 5730 c-53 -21 -110 -46 -127 -54 -64 -34 -78 -99 -23 -113 23&#10;-5 34 2 87 59 36 40 81 76 112 92 28 14 54 30 57 35 14 23 -16 17 -106 -19z"/>
<path d="M7833 5711 c-45 -52 -53 -71 -29 -71 7 0 33 -16 57 -35 24 -19 49&#10;-35 55 -35 13 0 104 104 104 119 0 6 -6 11 -12 11 -7 0 -33 14 -58 30 -25 16&#10;-52 30 -60 30 -8 0 -34 -22 -57 -49z"/>
<path d="M555 5569 c-96 -66 -153 -127 -193 -209 -35 -71 -37 -79 -37 -175 0&#10;-95 2 -104 37 -176 44 -90 117 -163 206 -205 48 -24 70 -28 142 -28 109 -1&#10;160 22 250 114 63 64 142 191 128 206 -4 4 -40 -26 -80 -67 l-73 -74 -3 257&#10;c-2 205 1 265 12 299 17 48 14 58 -9 39 -35 -29 -38 -51 -36 -331 l2 -278 -36&#10;-7 c-68 -12 -149 0 -219 35 -36 18 -66 36 -66 41 0 5 15 17 33 26 47 25 148&#10;93 180 122 l27 26 0 202 c0 112 -4 205 -8 208 -5 3 -40 -17 -78 -45 l-69 -49&#10;-5 -178 c-5 -164 -7 -180 -29 -215 -13 -21 -34 -45 -48 -54 -22 -15 -25 -14&#10;-48 7 -46 43 -70 116 -70 215 0 82 3 97 33 157 23 47 51 84 94 123 75 67 53&#10;75 -37 14z"/>
<path d="M4440 5504 l-53 -56 -44 51 c-25 28 -51 51 -58 51 -19 0 -145 -110&#10;-145 -126 0 -8 8 -14 19 -14 10 0 35 -18 55 -40 28 -31 34 -44 27 -58 -5 -10&#10;-11 -104 -12 -211 l-3 -193 61 -59 c34 -32 70 -59 81 -59 22 0 174 111 197&#10;144 27 37 -1 41 -45 6 l-41 -33 -35 34 -34 33 0 218 c0 120 4 218 8 218 4 0&#10;23 -16 42 -35 19 -19 40 -35 48 -35 7 0 47 30 88 67 75 69 95 102 52 88 -64&#10;-19 -68 -18 -108 24 -22 22 -41 41 -43 41 -2 0 -28 -25 -57 -56z"/>
<path d="M1994 5513 c-191 -143 -254 -203 -214 -203 14 0 13 -353 -1 -367 -16&#10;-16 -4 -30 54 -60 29 -14 76 -41 105 -59 29 -19 56 -34 62 -34 10 0 175 140&#10;203 172 42 50 5 51 -59 2 l-47 -36 -69 33 -68 33 0 53 0 52 130 97 c72 53 130&#10;102 130 109 0 34 -147 245 -171 245 -3 0 -28 -17 -55 -37z m25 -186 c28 -43&#10;51 -81 51 -86 0 -7 -61 -54 -97 -75 -10 -6 -13 21 -13 120 0 70 2 125 4 123 3&#10;-2 27 -39 55 -82z"/>
<path d="M3810 5514 c-25 -20 -80 -59 -122 -86 -43 -27 -78 -55 -78 -61 -1 -7&#10;-1 -73 -1 -147 0 -74 -3 -175 -7 -224 -8 -89 -8 -89 18 -103 14 -8 61 -34 104&#10;-59 44 -24 87 -44 97 -44 10 0 40 19 68 43 28 24 82 61 121 82 l70 38 0 231 0&#10;230 26 27 c35 36 25 49 -28 37 -38 -8 -50 -5 -129 31 -48 23 -89 41 -91 41 -2&#10;0 -23 -16 -48 -36z m100 -379 l0 -223 -65 36 -64 37 -1 207 c0 113 -3 214 -6&#10;223 -5 12 12 7 65 -20 l71 -36 0 -224z"/>
<path d="M4860 5484 c-218 -167 -203 -154 -186 -173 22 -25 23 -336 1 -365 -8&#10;-10 -12 -23 -9 -28 4 -5 40 -25 82 -44 42 -19 91 -46 108 -59 18 -14 36 -25&#10;41 -25 11 0 205 168 216 186 19 33 -7 33 -54 -1 -27 -19 -53 -35 -58 -35 -4 0&#10;-38 14 -75 30 l-66 30 1 53 0 52 126 90 c69 49 128 96 131 104 12 30 -125 243&#10;-159 248 -7 1 -52 -27 -99 -63z m65 -164 c26 -45 46 -82 44 -83 -2 -1 -28 -22&#10;-56 -45 l-53 -43 0 131 c0 76 4 129 9 126 5 -3 30 -42 56 -86z"/>
<path d="M5217 5494 c-37 -30 -67 -60 -67 -64 0 -5 9 -14 20 -20 43 -23 50&#10;-57 50 -261 0 -176 -2 -194 -21 -225 l-20 -34 28 -26 c15 -15 45 -38 66 -52&#10;l38 -26 55 55 c55 55 55 55 39 85 -12 23 -15 68 -15 222 l0 193 38 34 c20 19&#10;40 35 45 35 4 0 16 -15 27 -32 18 -30 20 -51 20 -224 0 -215 11 -271 61 -329&#10;17 -19 36 -35 41 -35 19 0 138 104 138 120 0 6 -11 10 -25 10 -14 0 -29 8 -35&#10;19 -6 12 -10 103 -10 227 0 167 3 211 15 223 12 15 7 24 -54 89 -37 39 -73 72&#10;-80 72 -17 0 -97 -59 -140 -104 -19 -20 -38 -36 -42 -36 -3 0 -14 20 -23 44&#10;-20 52 -52 96 -70 96 -6 0 -42 -25 -79 -56z"/>
<path d="M6045 5520 c-22 -17 -84 -55 -137 -86 l-97 -55 -1 -217 c0 -119 -2&#10;-225 -3 -235 -1 -10 9 -24 23 -32 14 -8 60 -35 103 -60 43 -25 83 -45 89 -45&#10;15 0 178 153 178 168 0 19 -20 14 -55 -13 l-33 -24 -62 33 -62 33 -2 222 c0&#10;121 1 221 4 221 3 0 30 -25 60 -55 30 -30 60 -55 67 -55 14 0 106 117 101 128&#10;-8 18 -106 102 -119 102 -8 -1 -32 -14 -54 -30z"/>
<path d="M6396 5445 c-75 -58 -136 -109 -136 -113 0 -5 5 -13 10 -18 12 -12 9&#10;-345 -3 -379 -7 -17 4 -26 80 -67 48 -26 100 -55 114 -65 27 -16 27 -16 90 36&#10;89 74 159 141 159 152 0 18 -28 8 -75 -28 l-48 -36 -68 34 -68 34 0 55 0 55&#10;97 67 c53 37 112 80 131 96 34 28 34 30 21 61 -29 72 -138 221 -161 221 -3 0&#10;-68 -47 -143 -105z m120 -126 l47 -81 -29 -23 c-16 -13 -41 -31 -56 -40 l-28&#10;-16 0 126 c0 73 4 124 9 121 5 -3 30 -42 57 -87z"/>
<path d="M7843 5494 c-35 -31 -63 -59 -63 -64 0 -5 11 -22 25 -38 25 -30 25&#10;-32 25 -224 0 -155 -3 -198 -15 -214 -8 -10 -15 -24 -15 -30 0 -18 111 -134&#10;128 -134 28 1 156 126 148 145 -5 13 -10 14 -28 4 -42 -23 -48 5 -48 230 0&#10;189 2 208 20 231 11 14 20 32 20 41 0 15 -109 109 -127 109 -4 0 -36 -25 -70&#10;-56z"/>
<path d="M8179 5492 l-63 -59 25 -30 c24 -29 26 -40 32 -169 7 -172 -2 -285&#10;-26 -311 -9 -11 -17 -24 -17 -30 0 -14 127 -106 139 -101 5 2 32 25 61 52 l51&#10;48 -16 35 c-14 29 -17 67 -16 232 l1 196 32 26 c25 21 36 24 48 16 39 -24 44&#10;-48 48 -230 4 -157 2 -183 -13 -212 -18 -32 -18 -33 4 -63 24 -34 102 -102&#10;117 -102 14 0 124 105 124 118 0 7 -7 12 -16 12 -8 0 -22 16 -30 37 -13 29&#10;-15 71 -12 214 l3 178 34 35 35 36 32 -31 33 -32 3 -222 3 -222 30 -48 c17&#10;-26 40 -54 52 -62 20 -13 25 -10 85 47 43 42 59 63 49 67 -7 3 -22 14 -32 24&#10;-17 17 -19 37 -19 229 0 177 3 215 16 235 11 16 12 25 5 25 -7 0 -38 27 -71&#10;60 -33 33 -67 60 -77 60 -10 0 -55 -32 -100 -70 -45 -39 -84 -70 -87 -70 -3 0&#10;-6 6 -6 14 0 19 -98 126 -115 126 -7 0 -49 -29 -92 -64 -43 -35 -81 -62 -86&#10;-59 -4 2 -17 23 -28 46 -25 50 -48 77 -64 77 -7 0 -41 -26 -76 -58z"/>
<path d="M9223 5446 c-77 -57 -143 -108 -147 -114 -3 -5 1 -15 9 -22 22 -18&#10;22 -342 0 -360 -24 -20 -18 -28 38 -56 28 -15 81 -45 117 -66 40 -24 69 -37&#10;76 -31 58 43 204 178 204 189 0 23 -22 16 -69 -21 -24 -19 -47 -35 -50 -35 -3&#10;0 -33 15 -66 34 l-60 33 -2 54 -3 54 128 90 c80 58 128 98 130 111 3 21 -133&#10;235 -154 241 -5 2 -73 -43 -151 -101z m111 -130 l47 -79 -28 -23 c-15 -12 -40&#10;-30 -55 -39 l-28 -16 0 127 c0 71 4 124 8 119 5 -6 30 -46 56 -89z"/>
<path d="M9749 5512 c-24 -20 -70 -57 -101 -80 l-58 -43 0 -99 c0 -54 -3 -105&#10;-6 -114 -4 -11 11 -26 50 -51 31 -20 56 -38 56 -41 0 -3 -18 -29 -40 -59 -49&#10;-66 -110 -176 -110 -198 0 -27 19 -29 54 -8 44 28 83 26 128 -4 47 -32 63 -31&#10;104 4 18 16 63 46 101 67 109 60 103 47 103 205 l0 138 -59 35 -59 36 35 53&#10;c43 64 83 141 83 161 0 13 -28 36 -43 36 -3 0 -8 -16 -11 -35 -4 -19 -11 -35&#10;-16 -35 -5 0 -43 16 -86 35 -42 19 -78 35 -79 35 -1 0 -22 -17 -46 -38z m124&#10;-138 l29 6 -20 -33 c-11 -17 -32 -53 -47 -79 -15 -27 -32 -48 -39 -48 -22 0&#10;-38 44 -44 122 l-5 79 49 -26 c34 -18 58 -25 77 -21z m-32 -253 c22 -17 24&#10;-29 27 -115 2 -53 2 -96 -1 -96 -3 0 -23 10 -44 23 -23 13 -62 24 -96 27 l-58&#10;5 61 88 c33 48 67 87 74 87 8 0 24 -9 37 -19z"/>
</g>
</svg>